<svg width="1000" height="1000" viewBox="0 0 1000 1000" fill="none" xmlns="http://www.w3.org/2000/svg">
<g clip-path="url(#clip0_1572_11452)">
<rect width="1000" height="1000" fill="#B3CDFF"/>
<path fill-rule="evenodd" clip-rule="evenodd" d="M-336.424 103.233L-343.51 130.092L-467.593 83.0982L-470.793 91.5321L-345.795 138.868L-358.215 185.863L-563.293 115.2L-568.207 129.409L-362.063 200.413L-385.34 288.437C-385.455 288.855 -385.531 289.311 -385.531 289.767L-388.388 366.165C-390.903 365.254 -393.341 364.418 -395.093 363.81C-397.265 363.088 -398.37 362.632 -400.465 362.328M888.519 -396L1036.53 -274.582C1029.71 -275.608 1022.62 -276.102 1015.08 -275.76C1003.65 -275.266 991.153 -272.987 977.133 -268.238C938.464 -255.169 890.157 -236.174 868.289 -227.474C870.613 -278.229 853.698 -333.43 841.964 -382.095C857.927 -387.376 873.623 -392.239 888.557 -396H888.519ZM827.563 -377.271C839.373 -328.377 854.765 -274.772 852.974 -228.234L757.121 -283.092C759.369 -285.372 761.464 -287.689 763.407 -290.044C781.351 -311.813 786.266 -335.405 793.695 -360.821C794.152 -362.34 794.114 -364.012 793.619 -365.494C795.79 -366.253 797.962 -367.013 800.133 -367.773C809.276 -370.964 818.458 -374.155 827.601 -377.309L827.563 -377.271ZM777.77 -360.023C770.989 -336.355 766.074 -316.98 751.712 -299.58C736.32 -280.927 709.271 -263.299 654.64 -245.634C598.979 -227.626 566.368 -218.508 547.015 -209.011C537.338 -204.262 530.404 -199.133 526.747 -191.763C523.89 -186.027 523.623 -179.834 524.575 -173.3C512.46 -176.491 496.384 -179.644 477.678 -180.29C443.39 -181.506 403.845 -170.982 367.881 -173.034H367.653C363.081 -173.3 356.338 -173.794 348.604 -174.363C327.879 -178.314 312.221 -190.357 302.887 -206.427C290.963 -226.98 289.668 -254.219 304.068 -280.129C304.411 -280.699 304.64 -281.345 304.83 -281.991C313.326 -297.529 320.945 -311.167 326.584 -320.931C439.885 -325.414 555.396 -331.454 679.441 -336.431C708.128 -337.571 742.225 -347.942 777.808 -360.061L777.77 -360.023ZM-278.782 -333.544C-249.676 -326.515 -219.655 -322.298 -192.035 -319.753C-187.577 -319.335 -183.234 -318.993 -178.929 -318.651L-181.672 -292.248L-281.563 -301.442L-278.782 -333.544ZM308.792 -320.209C297.211 -299.77 280.562 -269.302 265.399 -240.049C256.066 -222.042 247.379 -204.604 240.827 -190.357C239.684 -187.888 238.693 -185.609 237.703 -183.329C227.683 -184.165 217.968 -185.001 207.225 -185.913C222.578 -201.717 233.588 -219.078 243.875 -236.972C260.104 -265.237 274.657 -295.325 287.496 -319.373C294.582 -319.639 301.668 -319.905 308.754 -320.171L308.792 -320.209ZM273.629 -318.917C261.437 -295.705 248.103 -268.428 233.436 -242.974C221.664 -222.497 209.663 -203.768 191.376 -187.28C175.604 -188.648 160.175 -189.94 143.336 -191.421L154.041 -282.37C154.079 -282.712 154.079 -283.054 154.079 -283.434L153.355 -315.574C193.472 -316.372 233.474 -317.55 273.629 -318.955V-318.917ZM-169.862 -317.968C-150.356 -316.676 -132.641 -316.144 -118.202 -315.954C-110.888 -315.878 -104.716 -315.878 -99.1917 -315.878L-83.6099 -283.168L-172.643 -291.336L-169.9 -317.892L-169.862 -317.968ZM-81.0192 -315.992C-64.1422 -315.536 -47.3412 -315.232 -30.6546 -314.966L-38.5026 -232.071C-39.1122 -232.109 -39.6837 -232.185 -40.3314 -232.223C-42.7315 -232.337 -45.284 -232.337 -47.7984 -232.071C-48.2175 -232.033 -48.6365 -231.957 -49.0556 -231.881L-89.1721 -315.954C-85.248 -315.954 -82.1622 -316.03 -81.0192 -315.954V-315.992ZM138.307 -315.27L139.031 -283.586L128.325 -192.713C109.277 -194.384 89.8472 -196.056 69.9985 -197.804L80.0181 -314.548C99.4858 -314.7 118.915 -314.928 138.307 -315.27ZM-21.5493 -314.852C1.08051 -314.548 23.5579 -314.434 45.921 -314.434L-19.9112 -228.386C-22.6542 -229.564 -25.8162 -230.323 -29.4736 -230.931L-21.5112 -314.814L-21.5493 -314.852ZM70.9509 -314.51L60.9694 -198.601C36.7396 -200.729 12.1667 -202.894 -12.406 -205.098L-11.4916 -217.141C-11.4916 -217.141 -11.4916 -217.407 -11.4916 -217.521C-11.4916 -219.344 -12.0631 -221.054 -12.9774 -222.573L57.274 -314.396C61.8456 -314.396 66.3792 -314.396 70.9128 -314.472L70.9509 -314.51ZM-282.287 -292.4L-234.856 -288.031L-240.723 -225.081C-257.448 -226.334 -273.296 -227.436 -287.811 -228.538L-282.287 -292.362V-292.4ZM-225.865 -287.195L-182.587 -283.206L-189.063 -220.826C-191.501 -221.054 -194.511 -221.32 -196.911 -221.51C-208.912 -222.573 -220.455 -223.523 -231.732 -224.359L-225.903 -287.157L-225.865 -287.195ZM-173.558 -282.37L-104.182 -275.988L-109.973 -213.722C-133.555 -215.811 -157.976 -218.014 -179.996 -219.99L-173.519 -282.37H-173.558ZM-95.1914 -275.152L-79.0763 -273.671L-57.2846 -227.968C-58.618 -226.448 -59.6086 -224.473 -59.6848 -222.307V-222.573L-60.9039 -209.353C-74.7713 -210.568 -87.4196 -211.708 -100.982 -212.924L-95.1914 -275.152ZM747.826 -274.43L851.869 -214.899C851.869 -214.899 851.869 -214.633 851.946 -214.481C850.879 -205.554 849.05 -196.93 846.307 -188.724C845.736 -186.976 845.126 -185.305 844.516 -183.595L723.634 -258.094C733.044 -263.413 741.044 -268.846 747.864 -274.468L747.826 -274.43ZM1020.64 -261.02C1035.04 -260.944 1047.38 -257.373 1060.83 -252.244C1084.76 -243.126 1111.62 -228.348 1153.68 -220.712C1168.38 -218.053 1186.82 -216.153 1207.89 -214.443L1205.3 -184.279L1196.76 -185.001C1196.76 -185.001 1196.5 -185.001 1196.35 -185.001C1196.35 -185.001 1169.07 -185.685 1157.71 -188.268C1115.58 -197.842 1100 -201.907 1037.71 -233.705C1026.85 -239.251 1013.17 -236.82 999.725 -233.287C986.277 -229.792 973.057 -224.435 964.79 -221.168C924.94 -205.25 869.623 -182.265 858.422 -177.593C859.146 -179.682 859.908 -181.772 860.632 -183.937C863.527 -192.561 865.508 -201.451 866.803 -210.53C878.156 -215.127 936.141 -238.377 982.048 -253.916C997.134 -259.006 1009.52 -261.096 1020.72 -261.02H1020.64ZM711.176 -251.56L731.329 -239.137L706.147 -187.812L680.927 -199.741L669.193 -234.502C685.422 -240.087 699.252 -245.748 711.138 -251.56H711.176ZM739.063 -234.388L788.247 -204.072L766.074 -159.471L714.338 -183.975L739.063 -234.388ZM278.924 -233.325C280.029 -220.978 283.762 -209.201 289.82 -198.791C294.468 -190.737 300.563 -183.519 307.764 -177.479C291.763 -178.77 273.857 -180.252 253.627 -181.962C253.97 -182.683 254.199 -183.291 254.542 -184.051C260.904 -197.918 269.514 -215.241 278.81 -233.097L278.924 -233.325ZM660.621 -231.691L671.631 -199.057L572.54 -156.546C564.197 -159.623 554.101 -163.346 547.548 -165.74C546.71 -166.044 544.196 -167.031 540.5 -168.361C540.614 -169.273 540.538 -170.222 540.31 -171.096C538.595 -178.238 538.748 -182.113 540.233 -185.039C541.681 -187.964 545.3 -191.383 553.644 -195.448C570.292 -203.578 603.437 -213.19 659.287 -231.235C659.745 -231.387 660.164 -231.539 660.621 -231.691ZM-487.479 -224.587C-486.717 -224.587 -485.955 -224.587 -485.232 -224.587C-481.727 -224.511 -478.869 -223.979 -476.964 -223.029C-414.294 -191.041 -396.389 -186.178 -354.139 -176.567C-339.662 -173.262 -313.794 -173.034 -313.298 -173.034L-304.841 -172.312L-312.651 -78.2855C-382.902 -104.309 -534.987 -156.356 -606 -183.139C-584.399 -192.029 -559.674 -202.172 -539.901 -210.036C-531.634 -213.342 -518.795 -218.47 -506.376 -221.7C-499.594 -223.485 -492.927 -224.473 -487.441 -224.587H-487.479ZM1021.63 -224.587C1022.39 -224.587 1023.15 -224.587 1023.88 -224.587C1027.38 -224.511 1030.24 -223.979 1032.15 -223.029C1066.47 -205.516 1087.35 -196.132 1106.21 -189.674L1085.18 -118.023C1018.54 -141.502 946.351 -166.803 903.11 -183.139C924.711 -192.029 949.437 -202.172 969.209 -210.036C977.476 -213.342 990.315 -218.47 1002.73 -221.7C1009.52 -223.485 1016.18 -224.473 1021.67 -224.587H1021.63ZM-44.0268 -223.219C-41.0171 -223.219 -37.6264 -222.953 -35.1501 -222.611C-29.4736 -221.89 -25.1686 -220.864 -22.9208 -219.8C-20.7112 -218.736 -20.6731 -218.508 -20.6731 -217.483L-21.5493 -205.858C-32.0261 -206.769 -41.5505 -207.643 -51.951 -208.555L-50.6938 -221.738C-50.6938 -221.738 -50.6938 -221.89 -50.6938 -222.004C-50.6938 -222.004 -50.5795 -222.042 -50.5033 -222.117C-50.0081 -222.421 -48.6366 -222.877 -46.8841 -223.067C-46.0079 -223.181 -45.0554 -223.219 -44.0268 -223.219ZM-289.183 -213.532C-274.668 -212.43 -258.972 -211.328 -242.437 -210.112L-245.333 -179.34L-291.773 -183.291L-289.145 -213.532H-289.183ZM1219.93 -213.532C1246.82 -211.48 1277.57 -209.543 1310.79 -206.541C1424.97 -196.284 1567.76 -183.557 1683 -173.642C1680.33 -171.856 1677.55 -170.108 1674.69 -168.399C1639.42 -147.428 1627.72 -148.264 1582.96 -152.101L1217.3 -183.329L1219.93 -213.57V-213.532ZM-233.408 -209.429C-222.017 -208.555 -210.398 -207.643 -198.321 -206.541C-195.959 -206.313 -192.987 -206.085 -190.587 -205.858L-193.597 -174.895L-236.342 -178.542L-233.408 -209.391V-209.429ZM-181.558 -205.06C-159.195 -203.046 -134.47 -200.843 -110.545 -198.715L-113.669 -168.095L-184.568 -174.135L-181.558 -205.06ZM795.942 -199.361L840.211 -172.084C834.84 -158.066 829.011 -144.921 822.915 -132.612L774.227 -155.672L795.981 -199.399L795.942 -199.361ZM-101.554 -197.918C-88.2577 -196.74 -75.9142 -195.638 -62.3896 -194.422L-65.2469 -163.992L-104.64 -167.373L-101.516 -197.956L-101.554 -197.918ZM-53.3606 -193.625C-42.8458 -192.675 -33.2452 -191.839 -22.6923 -190.889L-24.9781 -160.535L-56.2179 -163.194L-53.3606 -193.625ZM677.117 -191.649L702.147 -179.796L672.583 -119.505C640.391 -131.548 610.79 -142.489 584.845 -152.063L677.117 -191.649ZM-13.6632 -190.091C10.9857 -187.888 35.5966 -185.723 59.9026 -183.595L56.8168 -153.583L-15.9872 -159.813L-13.6632 -190.129V-190.091ZM1114.78 -186.862C1127.16 -183.025 1139.43 -180.138 1154.97 -176.605C1169.45 -173.3 1195.32 -173.072 1195.81 -173.072L1204.27 -172.35L1200.92 -131.966C1198.55 -130.332 1198.29 -126.989 1200.35 -124.976L1196.46 -78.3234C1182.52 -83.4901 1164.88 -89.7965 1145.75 -96.6348C1144.99 -97.2427 1144.04 -97.6226 1143.05 -97.6226H1142.97C1127.66 -103.055 1110.74 -109.02 1093.71 -115.022L1114.82 -186.862H1114.78ZM68.9318 -182.797C89.3138 -181.012 109.391 -179.264 128.935 -177.555L126.04 -151.417C112.325 -148.872 97.8094 -150.05 73.8463 -152.101L65.884 -152.785L68.9698 -182.797H68.9318ZM890.919 -178.124C893.662 -177.061 896.443 -175.997 899.491 -174.857L873.699 -116.96L839.411 -132.004C844.097 -141.806 848.631 -152.101 852.86 -162.928C853.698 -162.928 854.574 -163.08 855.336 -163.422C855.336 -163.422 872.061 -170.374 890.919 -178.162V-178.124ZM137.964 -176.757C150.536 -175.655 161.851 -174.705 173.89 -173.642C171.223 -171.856 168.48 -170.108 165.623 -168.399C153.546 -161.219 144.25 -156.584 135.45 -153.773L138.002 -176.757H137.964ZM710.338 -175.921L762.036 -151.455L734.53 -96.141C717.272 -102.713 699.175 -109.552 681.117 -116.314L710.338 -175.921ZM192.024 -172.084C205.777 -170.906 219.035 -169.767 231.721 -168.703C230.312 -164.828 229.359 -161.599 229.055 -158.293C227.759 -142.527 226.235 -125.052 224.635 -106.816C209.511 -100.738 193.929 -94.5834 177.623 -89.1127C160.289 -83.3002 143.26 -77.7156 126.383 -72.2449L134.04 -141.236C145.545 -144.123 157.165 -149.366 171.794 -158.065C179.261 -162.51 185.929 -167.183 192.062 -172.084H192.024ZM-292.84 -171.324L-246.514 -167.373L-250.209 -128.129L-296.117 -131.966L-292.84 -171.324ZM913.625 -169.577C939.607 -159.965 972.943 -148.074 1008.18 -135.613L958.237 -5.03973C936.217 -14.3474 914.349 -23.5411 893.091 -32.4309L884.633 -104.537L913.625 -169.577ZM247.341 -167.411C289.363 -163.878 324.907 -160.991 347.347 -159.357C353.709 -158.255 360.376 -157.762 367.348 -158.028C406.588 -155.862 446.628 -166.385 477.106 -165.284C494.669 -164.638 509.832 -161.675 521.147 -158.673C522.099 -158.407 523.013 -158.179 523.89 -157.914L472.23 -76.082C446.781 -93.4057 418.817 -111.945 389.216 -127.027C372.529 -135.537 355.728 -139.032 338.775 -139.07C321.86 -139.108 304.792 -135.727 287.61 -130.522C272.219 -125.85 256.523 -119.733 240.37 -113.237C241.741 -128.661 242.998 -143.591 244.141 -157.154C244.179 -157.762 245.132 -161.599 246.922 -166.347C247.037 -166.689 247.227 -167.107 247.379 -167.487L247.341 -167.411ZM-237.485 -166.613L-194.778 -162.966L-198.587 -123.798L-241.18 -127.369L-237.485 -166.613ZM-185.749 -162.206L-114.926 -156.166L-118.888 -117.15L-189.558 -123.076L-185.749 -162.206ZM-105.897 -155.406L-45.8935 -150.277L-55.9131 -54.0475L-115.65 -59.4801L-105.897 -155.406ZM535.738 -154.114C538.709 -153.051 540.957 -152.177 542.329 -151.683C550.215 -148.796 562.101 -144.427 572.578 -140.552C572.578 -139.678 572.578 -139.108 572.502 -138.007C572.388 -132.916 572.159 -125.66 571.778 -116.998C571.054 -99.6741 569.759 -76.8418 567.397 -55.1112C566.94 -50.7803 564.235 -43.1822 561.606 -37.0278C560.73 -34.9383 559.892 -33.1527 559.13 -31.4811C546.253 -34.3304 532.5 -37.7116 518.708 -44.7398C507.394 -51.958 495.088 -60.3539 482.135 -69.2057L535.7 -154.076L535.738 -154.114ZM-36.8264 -149.518L-16.5967 -147.808L19.3671 -75.1702C24.3578 -64.4569 25.6913 -59.4802 30.0344 -55.6431C33.7679 -52.338 38.2253 -51.4261 46.1495 -49.3367L45.921 -46.9433C13.6525 -37.0658 -18.3491 -27.6821 -50.4651 -18.6024L-36.8264 -149.556V-149.518ZM770.189 -147.618L818.801 -124.596C809.353 -106.436 799.333 -90.0245 789.428 -74.8663C775.484 -80.3749 759.788 -86.4914 742.987 -92.9118L770.189 -147.618ZM-6.08185 -146.896L55.5977 -141.616L47.0639 -58.4924C40.2826 -60.3539 37.311 -61.2277 36.0157 -62.3674C34.4156 -63.8111 32.6631 -67.99 27.5581 -78.9313V-79.0073L-6.08185 -146.858V-146.896ZM64.6267 -140.856L72.8176 -140.172C94.9141 -138.272 110.344 -137.361 124.706 -139.45L116.934 -69.2437C96.1713 -62.5573 75.675 -56.099 55.2929 -49.8305L55.3691 -50.4764C55.9406 -51.5401 56.0549 -52.7558 55.712 -53.8955L64.6267 -140.856ZM581.569 -137.247C594.636 -132.422 607.399 -127.749 622.562 -122.126C622.562 -121.443 622.562 -121.139 622.524 -120.379C622.409 -114.756 622.181 -106.74 621.8 -97.3567C621.076 -78.5894 619.781 -54.2754 617.419 -32.5829C616.961 -28.2899 614.256 -20.6538 611.628 -14.4994C611.285 -13.7016 610.98 -13.0178 610.637 -12.2959C605.266 -15.7151 599.246 -19.1342 591.855 -22.4394C584.769 -25.5546 576.731 -27.5681 568.197 -29.5056C568.768 -30.7593 569.378 -32.089 569.987 -33.5326C572.769 -39.991 575.778 -47.7031 576.464 -54.1995C578.826 -76.2339 580.121 -99.2182 580.883 -116.656C581.226 -125.128 581.455 -132.194 581.569 -137.285V-137.247ZM1016.75 -132.612C1038.97 -124.748 1060.57 -117.15 1082.62 -109.4L1041.59 30.3674C1017.29 19.958 992.182 9.24469 966.656 -1.54462L1016.79 -132.612H1016.75ZM338.47 -124.102C353.328 -124.102 367.767 -121.025 382.32 -113.579C411.122 -98.8763 438.628 -80.6029 464.115 -63.2032L398.892 40.131L236.407 -68.4079C237.246 -77.7536 238.084 -87.1752 238.884 -96.2549C257.628 -103.815 275.267 -110.957 292.03 -116.01C308.335 -120.949 323.612 -124.064 338.47 -124.064V-124.102ZM-296.84 -123L-251.047 -119.163L-255.467 -72.2069L-300.688 -76.3099L-296.802 -122.962L-296.84 -123ZM631.515 -118.783C643.782 -114.224 656.354 -109.514 669.117 -104.765C669.117 -103.967 669.117 -103.473 669.078 -102.523C668.964 -97.4326 668.736 -90.1765 668.355 -81.5146C667.631 -64.191 666.336 -41.3587 663.974 -19.6281C663.516 -15.4872 660.278 -5.7236 657.078 2.33038C655.364 6.66129 653.84 10.3464 652.659 13.0817C640.01 7.57309 631.781 2.17844 623.781 -3.36816C621.952 -4.62186 620.124 -5.91354 618.257 -7.20523C618.79 -8.38293 619.362 -9.6366 619.933 -10.9663C622.714 -17.4247 625.724 -25.1367 626.409 -31.6331C628.771 -53.6676 630.067 -78.1335 630.829 -97.0148C631.172 -105.829 631.362 -113.237 631.515 -118.783ZM832.63 -118.517L869.699 -102.257L877.128 -39.0793C850.574 -50.0965 825.697 -60.3159 803.714 -69.1677C813.429 -84.136 823.296 -100.472 832.668 -118.517H832.63ZM-242.057 -118.403L-199.464 -114.832L-204.074 -67.5341L-246.514 -71.4091L-242.057 -118.403ZM-190.435 -114.073L-119.802 -108.146L-124.679 -60.2779L-195.044 -66.6983L-190.435 -114.073ZM1091.12 -106.36C1107.05 -100.738 1123.05 -95.1152 1137.45 -89.9865L1132.49 -70.0795L1085.25 -86.4154L1091.12 -106.36ZM678.069 -101.384C711.328 -88.9228 744.054 -76.4619 771.636 -65.6726C757.769 -58.2265 740.778 -46.2595 713.271 -16.3609C699.633 -1.54465 689.88 12.4359 681.803 24.2509L660.811 17.0327C662.03 14.2214 663.63 10.4224 665.535 5.63559C668.812 -2.64633 672.279 -11.992 673.002 -18.6783C675.365 -40.7128 676.66 -63.6971 677.422 -81.1347C677.765 -89.4547 677.993 -96.3309 678.108 -101.422L678.069 -101.384ZM223.112 -89.9865C218.692 -40.3329 213.854 13.2336 210.425 57.5686C202.31 58.6323 196.177 60.4559 192.443 60.9877C184.405 62.1654 173.852 63.5711 162.308 65.0527L176.518 -72.9288C178.461 -73.5746 180.404 -74.2205 182.347 -74.8663C196.52 -79.6151 210.044 -84.8198 223.073 -89.9865H223.112ZM1145.98 -86.9473C1164.76 -80.2609 1182.13 -73.9925 1195.62 -69.0157L1185.72 50.1984C1165.14 54.8333 1144.23 59.5061 1122.66 64.2169C1122.21 64.3309 1121.75 64.4829 1121.29 64.6728C1117.33 62.9633 1113.79 61.4436 1109.67 59.6581L1145.98 -86.9093V-86.9473ZM1082.66 -77.7536L1130.28 -61.3037L1101.22 55.973C1084.95 48.9827 1068.11 41.7266 1049.86 33.9385L1082.66 -77.7536ZM167.108 -69.8136L153.089 66.2304C140.021 67.902 125.849 69.6876 110.344 71.5871L124.478 -55.9091C138.536 -60.4679 152.746 -65.1028 167.07 -69.8516L167.108 -69.8136ZM-301.526 -67.3442L-256.381 -63.2412L-265.867 36.9017C-280.725 40.3969 -295.736 43.892 -311.051 47.3871L-301.526 -67.3442ZM-247.39 -62.4054L-204.988 -58.5304L-213.026 24.2129C-227.351 27.746 -241.866 31.2412 -256.572 34.7363L-247.39 -62.4054ZM235.417 -58.1885L394.016 47.767L353.328 112.199C336.413 108.21 318.774 100.346 299.649 86.8213C270.009 65.8505 247.075 58.5183 229.245 57.0747C227.988 56.9607 226.807 56.9228 225.588 56.8848C228.293 22.0475 231.836 -18.2605 235.379 -58.1505L235.417 -58.1885ZM-195.959 -57.7326L-125.631 -51.3122L-131.193 3.47012C-155.004 9.73856 -179.12 15.893 -203.693 21.9335L-195.959 -57.7326ZM474.02 -56.4409C485.907 -48.3109 497.336 -40.5609 508.156 -33.6086C508.27 -33.4567 508.384 -33.3427 508.536 -33.1907L466.591 85.3776L408.874 46.8173L474.02 -56.4029V-56.4409ZM786.609 -56.3649C767.941 -22.5534 737.882 4.22992 712.128 34.7363L697.118 29.5696C704.509 18.5143 712.814 6.3194 724.32 -6.17947C756.931 -41.5486 771.408 -49.2227 786.609 -56.3649ZM802.19 -53.5156C825.315 -44.2079 851.298 -33.5326 879.071 -21.9455L890.881 78.3874C886.5 78.1215 882.309 78.1974 878.423 78.6913C873.356 79.3371 868.746 80.5909 864.708 82.8703C863.222 83.7061 861.851 84.7318 860.594 85.9095L794.876 63.2672L799.943 -49.1847C800.705 -50.5904 801.467 -52.034 802.229 -53.4776L802.19 -53.5156ZM115.029 -52.7938L101.124 72.7648C82.1134 75.0822 62.0742 77.4756 41.9589 79.793L53.5786 -33.5326C73.9225 -39.7631 94.3427 -46.1455 115.068 -52.7938H115.029ZM-116.602 -50.4764L-56.8655 -45.0438L-59.9133 -15.905C-80.4097 -10.1685 -101.058 -4.5459 -121.821 0.962738L-116.602 -50.4764ZM790.152 -33.1527L785.961 60.1899L727.596 40.093C748.016 16.8048 771.751 -5.76157 790.19 -33.1527H790.152ZM44.2066 -30.6074L32.7774 80.8947C-1.3197 84.8458 -34.2739 88.5309 -61.9325 91.4941L-52.1415 -2.41843C-19.9874 -11.4602 11.9762 -20.8058 44.2446 -30.6074H44.2066ZM516.461 -28.3659C517.223 -27.9101 518.023 -27.3781 518.785 -26.9223C518.937 -26.7703 519.089 -26.6943 519.28 -26.5424C523.623 -22.9713 529.109 -17.9565 535.014 -12.6758C540.271 -7.96503 545.719 -3.06424 551.244 1.30466L521.147 86.8213C507.47 89.0247 494.364 92.1019 481.716 95.4831L474.439 90.6203L516.537 -28.3659H516.461ZM541.491 -23.0473C560.082 -17.7666 576.502 -15.981 586.979 -11.3462C599.665 -5.7236 607.589 0.126984 616.961 6.58536C618.866 7.91504 620.847 9.24469 622.943 10.6123C622.447 10.5363 621.914 10.4984 621.419 10.4224C606.904 8.71283 593.036 7.57309 575.55 1.98849C568.311 -0.328918 554.748 -11.2322 543.091 -21.6416C542.557 -22.1355 542.062 -22.5914 541.529 -23.0473H541.491ZM895.148 -15.2212C914.082 -7.31915 933.397 0.810791 952.865 9.05472L923.264 86.4414C920.063 85.0737 916.673 83.782 913.168 82.6803C910.92 81.9585 908.672 81.3886 906.463 80.8568L895.186 -15.2212H895.148ZM-61.5134 0.240936L-71.114 92.5198C-72.5236 92.6718 -74.2379 92.8618 -75.6094 93.0137C-90.7341 94.6093 -111.497 96.4709 -131.651 98.2564L-123.383 17.0327C-102.582 11.5241 -82.0098 5.93951 -61.5134 0.240936ZM558.863 6.88928C563.206 9.77655 567.549 12.094 571.816 13.4616C581.112 16.4249 589.531 18.2484 597.341 19.5021L576.388 79.0712C561.415 81.2747 546.138 83.0602 531.281 85.2637L558.863 6.88928ZM961.208 12.5879C983.038 21.8575 1004.37 30.9373 1025.44 39.941C1021.14 52.8578 1017.02 63.5331 1015 72.3849C1014.54 74.4364 1014.16 76.4119 1013.97 78.3114L938.236 94.5714V94.7993C936.141 93.2797 933.855 91.836 931.416 90.5063L961.208 12.6258V12.5879ZM-132.755 19.4641L-140.832 99.0542C-169.672 101.562 -194.778 103.651 -194.778 103.651C-194.778 103.651 -194.778 103.651 -194.816 103.651C-200.835 104.183 -206.283 104.715 -211.693 105.247L-205.14 37.8515C-180.606 31.811 -156.49 25.6945 -132.717 19.4641H-132.755ZM606.485 20.7938C611.094 21.3636 615.552 21.8575 619.933 22.3894C625.952 23.1112 631.857 23.909 637.953 25.1627L672.888 37.2057C667.44 44.8038 662.564 50.6923 657.344 54.1494C650.068 58.9362 641.991 62.7733 633.343 65.9645L594.37 55.1372L606.447 20.7938H606.485ZM-214.512 40.131L-220.913 106.12C-237.294 107.716 -250.971 108.932 -263.505 108.742L-258.019 50.5783C-243.314 47.1212 -228.837 43.6261 -214.512 40.131ZM689.537 42.9043L702.147 47.2352C701.042 48.6788 699.937 50.1605 698.833 51.6041C691.327 61.8235 685.346 75.88 680.508 90.4684C680.508 89.1387 680.432 87.4671 680.432 86.1754C680.317 79.3752 682.793 66.9522 685.498 56.8848C687.137 50.7683 688.508 46.2094 689.575 42.9423L689.537 42.9043ZM1033.75 43.4741C1038.32 45.4496 1043.23 47.5011 1047.73 49.4386C1042.43 67.0662 1038.81 78.9952 1035.73 84.8078C1033.97 88.1129 1032.64 89.1767 1031.8 89.4426C1031 89.7086 1029.56 89.7086 1026.55 88.2269C1024.22 87.1252 1023.57 86.1754 1023.08 84.1239C1022.58 82.0724 1022.77 78.7293 1023.76 74.3224C1025.48 66.7623 1029.44 56.2389 1033.71 43.4361L1033.75 43.4741ZM717.233 52.4779L734.339 58.3664L734.834 124.128L683.746 139.21C685.117 131.346 687.251 121.089 690.108 110.717C695.328 91.7601 703.099 71.2832 710.947 60.5699C712.928 57.8345 715.024 55.1752 717.157 52.4779H717.233ZM-267.315 52.8198L-272.572 108.324C-281.563 107.64 -290.25 106.12 -299.507 103.233C-300.079 102.777 -300.688 102.397 -301.374 102.093C-301.374 102.093 -315.127 96.129 -321.375 93.4316L-313.451 63.4571C-297.869 59.924 -282.44 56.3909 -267.315 52.8198ZM1056.15 53.0477C1071.27 59.5441 1085.71 65.7366 1099.31 71.5871L1092.95 102.625L1045.75 84.7698C1048.83 77.5136 1051.96 67.0662 1056.11 53.0477H1056.15ZM404.112 54.4914L418.932 64.4069L411.769 113.035C411.198 113.149 410.588 113.263 410.017 113.339C395.426 115.618 381.025 116.416 366.205 114.516L404.112 54.4534V54.4914ZM743.444 61.4816L784.018 75.4621L777.618 95.863C774.189 105.665 773.237 110.603 772.208 112.047C771.675 112.769 771.179 113.225 769.198 114.06C767.179 114.858 763.903 115.808 758.988 117.024H758.798L743.94 121.469L743.483 61.5196L743.444 61.4816ZM591.398 63.6851L617.609 70.9792C607.666 73.6765 597.227 75.7281 586.522 77.5136L591.398 63.7231V63.6851ZM667.974 65.0907C666.374 72.4229 665.231 79.945 665.345 86.4794C665.345 86.8593 665.345 87.3531 665.345 87.7331C654.563 86.0995 640.886 85.1877 625 84.7698C639.477 80.5149 653.23 74.8163 665.612 66.6863C666.412 66.1544 667.174 65.6226 667.936 65.0527L667.974 65.0907ZM-326.671 66.4584L-332.538 88.5688C-342.671 84.162 -348.881 81.5026 -364.311 74.8163C-351.586 72.005 -339.052 69.2317 -326.671 66.4584ZM1182.44 66.4584L1176.57 88.5688C1166.44 84.162 1160.23 81.5026 1144.8 74.8163C1157.52 72.005 1170.06 69.2317 1182.44 66.4584ZM427.275 70.0295L463.543 94.2674L461.105 101.182C447.505 105.019 434.247 108.666 421.218 111.363L427.313 70.0295H427.275ZM224.559 71.929C225.702 71.929 226.883 72.005 228.14 72.119C242.922 73.2967 263.037 79.3372 291.039 99.1302C309.973 112.541 328.146 120.861 345.709 125.572C338.356 135.145 331.346 144.149 324.526 152.697C323.803 151.937 323.041 151.101 322.469 150.493C321.555 149.506 321.06 148.86 319.841 147.986C305.135 137.653 285.896 126.559 266.847 118.087C251.189 111.135 235.76 105.893 222.578 104.639C223.15 93.7735 223.797 82.8702 224.597 71.929H224.559ZM209.358 73.0687C208.596 83.7061 207.949 94.3434 207.415 104.905C196.329 105.969 184.709 108.324 173.356 111.401C173.699 110.451 173.661 109.426 173.356 108.476L163.489 80.1729C175.414 78.6153 186.348 77.1337 194.653 75.956C199.339 75.2722 203.987 74.0185 209.32 73.1067L209.358 73.0687ZM1107.84 75.2722C1139.35 88.8348 1156.11 96.0909 1172.69 103.309L1165.6 130.168L1101.6 105.93L1107.84 75.2722ZM792.59 78.4254L854.955 99.928C855.146 102.625 855.87 105.209 857.012 107.564C858.536 110.793 860.746 113.719 863.413 116.416C857.965 121.735 844.707 134.423 837.392 139.362C822.192 149.62 795.714 163.98 782.532 171.008L779.141 117.898C779.294 117.708 779.446 117.518 779.599 117.29C782.875 112.693 782.951 108.02 786.228 98.7123V98.5603L792.628 78.3874L792.59 78.4254ZM154.346 81.3506L164.861 111.439C165.127 112.237 165.623 112.921 166.27 113.453C154.765 116.91 143.793 121.013 134.345 125.154C123.106 130.092 114.039 134.955 108.439 139.248C108.058 139.552 107.715 139.818 107.372 140.084C107.753 122.076 108.401 104.297 109.277 86.9732C125.659 84.9597 140.555 83.0982 154.346 81.3127V81.3506ZM1014.7 87.4291C1015.57 90.0885 1017.21 92.5578 1019.5 94.4194L1005.55 135.905L954.846 118.429C954.694 115.656 953.932 112.921 952.789 110.489C951.341 107.412 949.284 104.601 946.77 102.017L1014.7 87.4291ZM100.133 88.1129C98.7238 115.694 98 144.263 97.8476 173.212L32.3203 185.635C35.5204 155.242 38.7206 125.002 41.8826 95.0652C61.6552 92.7478 81.3134 90.4304 100.133 88.1509V88.1129ZM1041.44 92.8238L1091.12 111.629L1080.87 161.852L1014.09 138.868L1027.69 98.2944C1030.09 98.8263 1032.45 98.8643 1034.77 98.0665C1037.48 97.1167 1039.61 95.2552 1041.4 92.8238H1041.44ZM886.309 93.3556C892.786 93.3936 900.596 94.5713 908.634 97.0787C919.34 100.422 928.369 105.513 933.817 110.413C936.521 112.845 938.312 115.238 939.15 116.948C939.95 118.657 939.874 119.417 939.722 119.949C939.569 120.443 939.188 121.127 937.55 122.076C935.912 123.026 933.055 123.938 929.435 124.394C922.197 125.306 911.873 124.318 901.129 120.975C890.424 117.632 881.395 112.541 875.947 107.678C873.242 105.247 871.451 102.853 870.613 101.144C869.813 99.4341 869.889 98.6743 870.042 98.1425C870.194 97.6486 870.575 96.9647 872.213 96.015C873.851 95.0652 876.709 94.1534 880.328 93.6975C882.157 93.4696 884.138 93.3557 886.309 93.3936V93.3556ZM29.5772 96.4709C26.377 126.711 23.1388 157.294 19.9386 187.99C2.9472 191.371 -12.9012 196.614 -28.0259 192.777L-17.2444 101.827C-2.08167 100.118 13.5383 98.3704 29.5772 96.5089V96.4709ZM597.646 99.776C627.133 99.814 651.249 100.802 665.688 103.119C665.954 116.226 666.221 129.333 666.526 143.389L569.721 125.382L578.712 99.89C585.226 99.814 591.589 99.776 597.684 99.814L597.646 99.776ZM569.035 100.004L560.692 123.71L524.918 117.062C523.28 116.758 521.871 116.454 520.423 116.15L525.604 101.372C527.014 101.144 528.461 100.916 529.909 100.726V100.84C543.396 100.46 556.425 100.194 568.997 100.004H569.035ZM-24.94 102.663L-35.4549 191.447L-87.4196 182.481L-76.6761 108.286C-75.8761 108.21 -74.8475 108.096 -74.0856 108.02C-59.6467 106.5 -42.6934 104.639 -24.9781 102.701L-24.94 102.663ZM515.394 103.157L511.622 113.909C506.517 112.275 502.593 110.223 497.793 106.994C503.622 105.589 509.489 104.259 515.394 103.157ZM-84.4099 109.046L-94.8866 181.19C-102.582 179.632 -110.316 183.355 -117.783 185.141L-146.128 176.745L-135.575 113.719C-117.897 112.161 -99.7631 110.527 -84.4099 109.008V109.046ZM-325.49 109.16C-304.422 119.037 -286.44 123.026 -267.62 123.748C-253.676 124.28 -239.352 123.14 -222.703 121.507L-225.484 153.267L-329.071 122.608L-325.528 109.16H-325.49ZM486.364 109.957C494.745 116.074 500.727 119.683 508.651 122.38L479.202 206.035C465.029 202.996 451.352 200.071 436.837 196.918L465.563 115.694C472.458 113.757 479.392 111.819 486.364 109.957ZM222.083 113.757C233.398 115.01 248.18 119.759 263.114 126.369C281.553 134.537 300.411 145.441 314.583 155.394C314.164 155.09 314.964 155.774 315.802 156.686C316.526 157.484 317.593 158.623 318.736 159.877C292.982 191.637 269.324 217.471 240.255 244.406C238.084 232.933 233.969 220.89 229.969 208.657C226.121 196.804 222.388 184.837 220.369 173.554C220.597 154.254 221.13 134.195 222.083 113.795V113.757ZM206.958 114.098C205.93 136.855 205.358 159.155 205.206 180.506C205.206 180.62 205.206 180.734 205.206 180.848C201.434 202.996 192.557 224.651 190.31 246.191L115.601 173.364C118.23 170.59 119.906 167.133 120.554 163.676C121.239 160.029 120.935 156.23 119.296 152.887C118.115 150.455 116.02 148.29 113.391 146.998C113.62 146.808 113.658 146.694 113.925 146.504C118.344 143.123 127.106 138.26 137.964 133.512C157.432 125.002 183.947 116.568 206.996 114.098H206.958ZM-144.87 114.592L-154.852 174.199L-216.646 155.926L-213.56 120.633C-207.274 119.987 -200.645 119.341 -193.521 118.695H-193.559C-193.559 118.695 -171.462 116.872 -144.87 114.592ZM1099.73 114.934L1163.24 138.982L1150.82 185.977L1089.52 164.854L1099.73 114.934ZM454.934 118.657L427.923 194.98C421.713 193.651 415.655 192.321 409.483 190.991L418.893 127.205C431.008 125.002 442.971 121.963 454.934 118.657ZM870.308 122.418C877.395 127.661 886.385 132.144 896.634 135.335C903.529 137.501 910.272 138.83 916.635 139.438L921.778 172.3L785.275 214.469L783.142 180.962C793.009 175.795 824.096 159.269 842.421 146.884C851.793 140.578 865.432 127.243 870.27 122.418H870.308ZM770.417 123.292L773.732 175.719L744.473 191.257L744.016 130.928L761.312 125.838C765.046 124.888 767.979 124.128 770.417 123.33V123.292ZM517.413 124.774C519.242 125.192 521.147 125.572 523.242 125.989L558.787 132.6L543.51 219.75C526.29 216.103 507.432 212.076 488.154 207.935L517.413 124.774ZM355.347 127.851C359.69 128.687 363.995 129.333 368.262 129.789L362.929 180.392C352.338 176.745 343.232 170.4 336.146 164.246C334.203 162.536 332.451 160.903 330.813 159.307C338.699 149.468 346.813 139.02 355.347 127.851ZM409.483 128.687L400.607 189.016C390.93 186.926 381.253 184.799 371.805 182.747L377.329 130.434C388.263 130.89 398.969 130.168 409.522 128.687H409.483ZM-331.357 131.346L-226.818 162.308L-243.047 252.84L-298.86 242.24C-299.545 241.785 -300.383 241.557 -301.222 241.557C-301.526 241.557 -301.831 241.557 -302.136 241.633L-357.72 231.109L-331.318 131.346H-331.357ZM948.903 132.334L1000.75 150.189L986.772 191.865L931.226 174.199L925.854 139.742C927.721 139.666 929.55 139.552 931.302 139.362C936.369 138.716 940.979 137.463 945.017 135.183C946.389 134.385 947.722 133.436 948.903 132.372V132.334ZM734.949 133.588L735.444 196.044L683.517 223.587C683.098 206.757 682.832 194.714 682.222 169.717C682.146 163.524 682.07 157.636 682.031 152.507C682.031 151.823 682.146 150.607 682.298 149.126L734.911 133.588H734.949ZM567.702 134.233L666.755 152.659C666.869 158.547 667.021 164.018 667.135 169.792C667.364 187.61 667.821 209.265 668.355 231.603L648.658 242.05C648.315 241.898 647.973 241.785 647.63 241.709C647.63 241.709 607.78 233.389 552.386 221.612L567.702 134.233ZM1009.33 153.153L1077.86 176.745L1069.4 218.154L995.42 194.6L1009.33 153.153ZM107.105 154.444C107.639 154.596 108.172 154.748 108.705 154.824C110.039 155.052 110.61 155.584 111.22 156.8C111.829 158.015 112.096 159.991 111.715 162.005C111.182 164.854 109.734 167.513 106.991 168.957C106.991 164.094 107.067 159.269 107.143 154.444H107.105ZM-218.093 164.892L-156.338 183.165L-162.586 220.472L-225.332 205.238L-218.093 164.892ZM325.098 166.373C326.66 167.893 328.336 169.451 330.165 171.046C332.832 173.364 335.803 175.719 339.042 178.036C328.374 202.388 326.546 210.024 326.393 238.631L326.127 284.03C298.163 283.46 276.676 283.27 261.818 283.27C254.047 283.27 248.027 283.27 243.798 283.27C242.694 283.27 242.808 283.27 241.932 283.27C241.893 273.203 241.855 262.375 241.817 258.652C241.817 257.551 241.741 256.449 241.703 255.347C273.019 226.778 298.049 199.691 325.098 166.335V166.373ZM1086.47 179.746L1146.93 200.565L1124.61 285.018L1068.6 267.2L1086.47 179.746ZM109.696 180.202L189.814 258.31C189.776 264.009 189.738 273.317 189.738 284.98C161.927 280.155 134.764 271.265 108.324 261.844C107.372 234.946 106.839 207.745 106.877 180.734L109.696 180.202ZM923.149 181.342L929.778 223.625L788.094 259.07L785.847 223.777L923.188 181.342H923.149ZM97.8095 182.443C97.8095 207.783 98.2667 233.275 99.1429 258.538C74.494 249.649 50.4546 240.683 27.2152 234.642C28.5867 221.422 29.9582 208.239 31.3678 195.018L97.8476 182.443H97.8095ZM346.775 182.975C352.909 186.47 359.767 189.396 367.386 191.067C371.996 192.093 376.796 193.119 381.444 194.144L369.824 285.436C358.205 284.942 346.623 284.562 335.194 284.258L335.46 238.707C335.613 210.936 336.794 205.807 346.775 182.975ZM932.75 184.191L983.876 200.451L971.8 236.428L939.303 226.094L932.75 184.191ZM774.303 185.635L779.104 261.35L758.036 266.63L745.73 201.363L744.168 201.667L774.303 185.673V185.635ZM-147.651 185.786L-120.602 193.803C-113.402 200.527 -109.935 213.33 -99.8774 215.533L-108.983 278.293L-161.481 268.34L-147.651 185.786ZM-98.4297 189.814L-96.2201 190.193L-98.5821 206.605L-99.0012 206.529L-110.011 192.663L-98.4297 189.852V189.814ZM-88.7911 191.485L-36.5978 200.489L-38.8836 219.826L-91.1912 208.201L-88.753 191.447L-88.7911 191.485ZM390.244 196.082C401.902 198.627 413.484 201.135 425.256 203.68L406.664 287.221C397.521 286.727 388.225 286.233 378.815 285.816L390.244 196.082ZM18.8719 197.526C17.6528 208.961 16.4718 220.434 15.2908 231.869L-31.4927 221.498L-29.1688 201.895C-12.2536 205.808 3.82343 200.831 18.8719 197.526ZM214.044 198.513C215.454 203.186 216.94 207.821 218.426 212.418C224.14 229.931 229.512 246.457 229.664 258.842C229.702 262.527 229.74 273.317 229.779 283.46C229.017 283.536 228.331 283.536 227.493 283.612C223.759 283.916 219.378 284.372 215.035 284.79C210.692 285.208 206.349 285.626 202.806 285.854C202.387 285.854 202.12 285.854 201.739 285.892C201.739 272.443 201.739 260.058 201.815 255.043C202.006 238.403 209.054 219.446 214.044 198.513ZM992.448 203.224L1067.5 227.082L1059.88 264.465L980.41 239.163L992.486 203.186L992.448 203.224ZM737.234 205.314L749.235 268.834L684.775 284.98C684.584 277.951 684.394 270.999 684.203 263.705C684.355 263.021 684.432 262.337 684.394 261.654C684.394 261.654 683.937 242.924 683.708 233.769L737.273 205.352L737.234 205.314ZM434.132 205.618C448.876 208.809 462.782 211.772 477.144 214.849L459.886 290.488C457.981 290.374 456.381 290.26 454.438 290.108C442.514 289.311 429.485 288.513 415.884 287.715L434.171 205.58L434.132 205.618ZM-226.97 214.165L-164.109 229.438L-170.357 266.668L-234.208 254.549L-226.97 214.165ZM486.021 216.749C505.603 220.928 524.842 225.031 542.291 228.754L543.586 276.926L517.527 294.249C517.527 294.249 517.299 294.439 517.146 294.515C516.385 294.477 515.47 294.439 512.994 294.287C509.641 294.059 505.032 293.718 499.355 293.3C491.317 292.73 480.611 291.932 468.953 291.134L485.945 216.749H486.021ZM-92.4866 217.205L-39.9503 228.868L-48.3317 299.568L-93.4771 281.371C-93.7437 281.257 -94.0485 281.181 -94.3152 281.105L-101.554 279.737L-92.4866 217.205ZM-32.5214 230.501L14.3764 240.911C11.5572 267.846 8.81421 294.705 6.07123 321.451L-41.0933 302.455L-32.5594 230.501H-32.5214ZM551.434 230.729C596.846 240.379 625.99 246.457 636.658 248.699L582.75 278.825C582.331 278.635 581.874 278.521 581.417 278.483L552.691 276.204L551.472 230.729H551.434ZM931.15 232.629L948.37 342.649C939.455 341.852 930.655 341.13 922.045 340.522L917.854 235.934L931.15 232.591V232.629ZM940.865 236.086L1123.27 294.135L1120.57 366.393C1118.59 365.672 1116.3 364.836 1114.82 364.342C1112.15 363.43 1110.89 362.898 1108.49 362.556C1078.09 357.997 1016.68 349.184 957.627 343.561L940.826 236.124L940.865 236.086ZM908.863 238.213L912.939 339.914C898.005 338.964 883.871 338.394 871.185 338.318L867.87 248.471L908.901 238.213H908.863ZM-360.12 239.885L-306.898 249.99L-315.813 288.019L-369.873 276.85L-360.082 239.885H-360.12ZM668.545 241.747C668.964 258.006 669.345 273.393 669.764 288.703L644.582 295.009C623.59 300.252 607.094 299.188 585.493 298.238V287.563L648.734 252.232L668.507 241.747H668.545ZM26.2247 243.798C49.5021 249.99 73.9606 259.298 99.4477 268.454C100.476 294.743 101.924 320.615 103.791 345.689C97.6571 348.044 91.4091 350.589 85.0469 353.287C84.9707 353.287 84.8945 353.211 84.8183 353.211L17.6909 326.161C20.472 298.846 23.2912 271.379 26.1866 243.798H26.2247ZM858.879 250.712L860.289 288.741L790.914 303.899L788.666 268.302L858.917 250.712H858.879ZM-297.983 251.662L-244.685 261.768L-251.771 301.24L-306.936 289.843L-297.983 251.662ZM-235.809 263.439L-171.843 275.558L-178.663 316.322L-242.933 303.063L-235.809 263.439ZM779.713 270.505L781.961 305.837L685.994 326.807C685.689 317.006 685.384 306.292 685.041 294.173L779.713 270.505ZM108.667 271.721C134.688 280.877 161.737 289.463 189.7 294.135C189.7 302.683 189.7 312.713 189.7 322.324C163.908 326.351 138.955 332.81 112.629 342.345C110.953 319.361 109.62 295.693 108.629 271.683L108.667 271.721ZM-162.928 277.268L-110.24 287.259L-136.184 466.042L-136.298 466.118C-137.06 465.359 -137.937 464.789 -138.927 464.409C-149.632 460.116 -169.481 452.176 -190.778 443.666L-162.928 277.268ZM548.005 284.866L576.502 287.145V300.1L547.967 315.828L524.614 312.485V300.366L548.005 284.828V284.866ZM-372.159 285.588L-317.87 296.795L-327.394 337.369L-352.577 331.252C-353.034 331.138 -353.453 331.1 -353.91 331.1C-359.168 331.328 -359.853 338.85 -354.71 340.028L-329.452 346.182L-338.633 385.275C-346.291 382.311 -354.367 379.158 -360.882 376.651C-366.673 374.447 -371.854 372.472 -376.578 370.724L-373.606 291.058L-372.159 285.588ZM-102.811 288.665L-96.4106 289.88L-49.3604 308.838L-63.4564 427.748C-85.5528 439.335 -107.383 450.808 -127.879 461.674L-102.811 288.703V288.665ZM261.818 292.312C276.676 292.312 298.125 292.502 326.089 293.072L325.936 321.033C312.45 318.715 298.163 317.196 282.886 316.93C268.638 316.702 255.113 316.816 242.084 317.348C242.084 308.8 242.046 299.758 242.008 292.35C242.655 292.35 243.075 292.35 243.836 292.35C248.103 292.35 254.085 292.35 261.856 292.35L261.818 292.312ZM229.893 292.502C229.893 299.986 229.931 309.37 229.969 317.993C220.368 318.601 210.997 319.475 201.815 320.653C201.815 311.915 201.815 302.759 201.815 294.933C202.387 294.933 202.882 294.895 203.529 294.857C207.301 294.591 211.682 294.211 216.025 293.756C220.407 293.338 224.75 292.882 228.331 292.616C228.94 292.578 229.359 292.54 229.931 292.502H229.893ZM335.118 293.3C358.509 293.908 382.815 294.971 405.864 296.225C405.864 302.987 405.788 319.627 405.14 344.093C383.73 336.153 360.795 328.023 334.927 322.742L335.118 293.338V293.3ZM414.931 296.719C428.646 297.517 441.828 298.314 453.829 299.112C455.276 299.226 456.419 299.302 457.867 299.378L445.028 355.68L442.057 357.352C432.951 354.35 423.694 350.931 414.169 347.398C414.855 321.489 414.969 303.747 414.969 296.719H414.931ZM860.632 297.896L862.117 338.394C838.992 338.774 816.134 341.244 793.466 344.511L791.485 313.055L860.632 297.935V297.896ZM670.069 297.935C670.374 309.37 670.679 319.969 670.983 329.163L552.996 334.785L552.691 323.54L582.483 307.09C605.342 308.078 623.552 309.56 646.83 303.709L670.069 297.896V297.935ZM-308.993 298.618L-253.333 310.129L-261.105 353.477L-318.556 339.496L-308.955 298.618H-308.993ZM467.048 300.024C479.278 300.86 490.44 301.658 498.822 302.265C504.498 302.683 509.108 303.025 512.499 303.253C513.832 303.329 514.708 303.405 515.584 303.481V316.284L455.695 349.754L467.048 300.024ZM-42.1219 311.725L5.15686 330.796C2.9472 352.565 0.775696 374.029 -1.35773 395.418C-18.6539 404.308 -36.9407 413.805 -55.4178 423.455L-42.16 311.725H-42.1219ZM-244.457 311.915L-180.11 325.212L-187.806 371.256L-252.305 355.566L-244.457 311.915ZM782.57 314.916L784.513 345.765C751.75 350.741 719.329 356.934 687.022 360.505C686.908 357.352 686.718 350.171 686.26 335.963L782.532 314.916H782.57ZM524.614 321.565L543.7 324.3L544.919 369.927C524.614 370.154 504.422 369.471 484.383 367.267C474.249 366.165 464.191 363.924 454.057 360.999L524.652 321.565H524.614ZM266.733 331.784C271.914 331.784 277.248 331.784 282.658 331.898C296.334 332.126 309.173 333.456 321.364 335.545L287.724 407.081C286.086 406.663 284.372 406.435 282.62 406.435C273.743 406.435 266.123 412.058 263.114 419.922L242.313 420.454C242.313 419.086 242.236 375.321 242.122 332.316C250.084 331.974 258.237 331.822 266.695 331.822L266.733 331.784ZM230.083 332.924C230.198 375.625 230.274 419.732 230.274 420.758L202.006 421.442C202.006 417.605 201.929 377.829 201.853 335.621C211.035 334.443 220.407 333.57 230.045 332.924H230.083ZM16.8527 335.431L73.5797 358.301C65.5031 361.948 57.1978 365.862 48.6639 370.116C37.4252 375.701 24.8151 382.045 11.481 388.846C13.2716 371.104 15.024 353.439 16.8527 335.469V335.431ZM330.546 337.293C357.595 342.839 381.596 351.843 404.721 360.429C404.569 365.634 404.378 370.952 404.15 376.499L373.062 383.299C372.758 383.375 372.453 383.451 372.148 383.603L300.297 416.313C299.078 414.375 297.554 412.628 295.801 411.184L330.546 337.293ZM189.776 337.369C189.814 379.386 189.891 417.946 189.929 421.67C183.795 421.594 178.233 421.935 173.128 422.771C166.804 413.236 158.27 403.738 143.336 401.003L118.915 360.049L118.077 358.529C117.887 358.187 117.696 357.883 117.468 357.618L116.934 356.706C141.964 347.512 165.47 341.282 189.814 337.369H189.776ZM671.25 338.166C671.669 351.995 671.898 358.833 671.974 361.569C671.707 361.721 671.479 361.872 671.25 362.024C670.374 362.1 669.459 362.176 668.583 362.252C630.257 365.102 591.932 368.901 553.987 369.775L553.301 343.751L671.288 338.128L671.25 338.166ZM-320.651 348.272L-262.705 362.366L-271.544 411.526C-275.582 409.93 -279.582 408.335 -283.583 406.777C-299.964 400.319 -315.508 394.24 -330.099 388.542L-320.651 348.272ZM871.642 353.325C883.299 353.401 896.405 353.932 910.234 354.806L902.348 409.171L856.936 410.69L869.699 353.325C870.347 353.325 870.956 353.325 871.604 353.325H871.642ZM860.441 353.401L847.602 410.994L788.171 413.008L792.857 359.821C815.448 356.478 837.926 353.932 860.403 353.439L860.441 353.401ZM919.302 355.414C928.978 356.098 938.922 356.896 949.056 357.845L945.208 483.784L900.977 481.581L919.302 355.414ZM958.084 358.681C969.323 359.783 980.6 360.961 991.801 362.214L985.629 570.516C974.238 572.416 962.847 574.239 951.456 576.101L958.084 358.643V358.681ZM108.286 359.973L111.029 364.57L134.611 408.449C128.973 421.822 131.792 433.713 135.983 443.932C135.983 443.97 135.983 444.008 135.983 444.046V444.578C131.983 449.289 128.059 454.645 123.982 460.686L92.4377 507.262C91.6758 505.894 90.6472 503.957 89.6185 501.83C87.5613 497.537 85.6945 492.104 85.6945 489.749C85.0469 440.361 82.9896 378.132 82.723 370.648C91.4854 366.735 99.981 363.164 108.286 359.935V359.973ZM783.675 361.227L779.256 411.07L746.035 400.281L740.282 368.255C754.797 365.899 769.274 363.468 783.675 361.227ZM1000.83 363.278C1043.84 368.293 1083.77 373.992 1106.28 377.335C1105.41 377.221 1107.58 377.677 1110.02 378.512C1112.45 379.348 1115.85 380.526 1119.92 382.045H1120L1115.88 491.876C1115.08 513.151 1111.58 531.044 1105.22 549.849H1105.14C1104.64 549.963 1104.19 550.077 1103.73 550.267C1103.43 550.267 1103.12 550.305 1102.82 550.381C1066.81 556.878 1030.77 563.07 994.696 569.073L1000.79 363.316L1000.83 363.278ZM413.674 363.772C423.846 367.495 433.866 371.028 443.962 374.029L457.943 466.65L408.036 468.17C409.598 443.286 411.274 417.794 412.417 394.088C412.912 383.413 413.331 373.384 413.636 363.734L413.674 363.772ZM-253.905 364.494L-189.33 380.184L-199.388 440.171C-219.008 432.345 -240.99 423.607 -262.972 414.907L-253.905 364.494ZM731.368 369.699L737.158 401.952L718.643 417.225L684.813 375.967C700.433 374.371 715.938 372.168 731.368 369.737V369.699ZM73.8463 374.751C74.3415 389.985 76.094 444.882 76.6655 489.901C76.7416 495.447 79.218 500.994 81.4658 505.743C83.7135 510.491 85.9993 514.214 85.9993 514.214C86.266 514.67 86.6088 515.05 86.9898 515.392L84.3231 519.343L32.0154 511.137L42.2255 390.175C46.6829 387.934 51.2165 385.655 55.331 383.603C61.6552 380.488 67.7889 377.525 73.8082 374.751H73.8463ZM453.562 376.689C463.124 379.196 472.763 381.096 482.706 382.197C487.392 382.729 492.117 383.147 496.802 383.489L501.489 465.283L467.087 466.308L453.524 376.651L453.562 376.689ZM661.611 377.905C654.259 391.733 649.725 402.522 646.982 413.084C637.305 416.313 629.838 425.051 622.752 434.586C614.904 445.148 607.551 457.153 600.084 465.435C599.97 465.587 599.818 465.739 599.703 465.891L555.929 464.067L551.396 384.971C588.388 384.249 625.229 380.792 661.611 377.943V377.905ZM677.155 380.792L711.671 422.923L693.537 437.854L661.307 416.199C664.05 406.169 668.812 395.76 677.117 380.754L677.155 380.792ZM505.946 384.135C518.061 384.857 530.214 385.085 542.329 385.009L546.862 463.915L510.594 465.017L505.946 384.135ZM403.769 385.845C403.655 388.466 403.578 390.973 403.426 393.633C402.245 418.136 400.492 444.578 398.892 470.373L360.376 492.826C341.099 474.134 321.326 455.557 300.906 437.322C302.544 434.358 303.497 430.939 303.497 427.292C303.497 426.494 303.421 425.697 303.344 424.899L375.501 392.037L403.769 385.883V385.845ZM1131.96 386.49C1138.02 388.77 1144.65 391.315 1152.19 394.202C1178.13 404.194 1211.62 417.377 1244.73 430.483C1295.78 450.694 1336.7 467.106 1357.04 475.236L1280.92 515.126L1118.74 547.152C1124.15 529.601 1127.24 512.277 1128 492.294L1131.96 386.49ZM-377.15 386.49C-373.683 387.782 -370.216 389.112 -366.292 390.593C-345.338 398.609 -317.87 409.361 -289.145 420.682C-284.04 422.695 -278.897 424.747 -273.753 426.76C-278.478 459.964 -286.135 490.774 -274.211 524.168L-390.407 547.114C-384.998 529.563 -381.912 512.239 -381.15 492.256L-377.188 386.452L-377.15 386.49ZM32.7774 394.886L23.0626 509.656L0.0518188 506.046C3.09961 473.755 6.33789 440.475 9.69043 406.663C17.6528 402.56 25.3865 398.647 32.7774 394.924V394.886ZM743.063 408.715L778.494 420.226L774.608 464.219C769.312 462.433 763.369 462.813 758.264 465.435L724.396 424.101L743.063 408.715ZM143.641 410.158C153.241 412.362 158.651 417.87 163.68 424.975C159.26 426.418 155.222 428.28 151.489 430.673C148.517 432.573 145.736 434.738 143.069 437.17C139.869 428.584 138.612 420.492 143.641 410.158ZM-3.11023 413.198C-6.15802 444.046 -9.09149 474.4 -11.8726 503.957C-31.3022 500.234 -46.8459 499.322 -64.0659 497.005L-57.4751 441.501C-39.036 431.851 -20.597 422.201 -3.0722 413.16L-3.11023 413.198ZM1505.89 414.223C1495.18 522.496 1485.85 624.501 1479.64 708.764C1476.13 756.67 1478.04 810.198 1442.26 863.765C1439.25 868.286 1431.44 876.378 1420.55 886.065C1418.68 887.699 1416.62 889.484 1414.6 891.232C1415.21 863.157 1416.74 842.528 1418.91 813.845C1420.32 795.002 1423.02 780.68 1420.7 766.737C1418.41 753.061 1410.26 740.866 1393.65 729.317C1328.31 669.596 1272.77 606.493 1218.17 542.821L1284.92 529.639C1285.65 529.487 1286.33 529.259 1286.98 528.917L1375.44 482.568L1375.71 482.682C1380.16 484.544 1385.23 481.771 1386.03 477.022L1505.92 414.223H1505.89ZM282.581 415.439C289.172 415.439 294.392 420.682 294.392 427.216C294.392 433.751 289.134 438.993 282.581 438.993C276.029 438.993 270.771 433.751 270.771 427.216C270.771 420.682 276.029 415.439 282.581 415.439ZM901.053 418.174L891.91 481.087L841.812 478.617L854.917 419.732L901.015 418.174H901.053ZM845.583 420.036L832.63 478.161L787.294 475.92V476.452C786.418 474.248 785.199 472.121 783.561 470.259C783.408 470.069 783.218 469.917 783.066 469.728H783.142L787.371 422.011L845.583 420.074V420.036ZM644.582 424.443C642.715 436.334 642.372 449.631 641.991 467.6L610.942 466.308C617.647 457.95 623.819 448.263 630.029 439.905C634.943 433.295 639.858 427.824 644.62 424.481L644.582 424.443ZM659.287 425.697L689.346 445.87L689.842 470.031L657.04 469.31C657.421 449.82 657.459 436.942 659.287 425.659V425.697ZM261.818 428.964C262.542 437.853 268.943 445.186 277.4 447.389L278.581 543.961L225.55 540.314C225.512 537.313 225.474 534.349 225.397 531.386C228.14 487.697 237.208 444.768 240.674 429.496L261.818 428.964ZM228.217 429.799C225.55 441.691 220.749 464.637 217.13 492.104C212.559 464.143 206.501 440.741 203.644 430.407L228.217 429.799ZM717.386 429.875L751.445 471.399L698.871 470.259L698.375 445.528L717.386 429.875ZM-265.067 430.217C-242.818 439.031 -221.446 447.503 -201.902 455.329L-210.283 505.515C-217.293 509.276 -227.96 515.012 -228.227 515.126L-265.22 522.42C-276.535 491.952 -269.829 463.345 -265.067 430.217ZM185.929 430.635C187.605 430.635 189.395 430.635 191.186 430.673C194.881 443.894 207.835 493.092 210.311 539.022L146.726 529.031L145.126 447.921C148.746 444.008 152.403 440.779 156.327 438.271C163.984 433.409 172.937 430.863 185.89 430.635H185.929ZM294.887 444.008C302.125 450.466 309.288 457.001 316.374 463.535L317.402 546.582L287.648 544.531L286.429 447.655C289.515 447.085 292.372 445.794 294.849 444.008H294.887ZM-65.5898 445.756L-71.533 495.903C-87.6101 493.32 -105.744 489.065 -130.165 479.833C-109.783 469.006 -88.1053 457.571 -65.5898 445.756ZM-193.254 458.748C-177.024 465.207 -162.967 470.867 -152.909 474.856C-172.072 485.076 -187.387 493.206 -200.149 500.082L-193.216 458.748H-193.254ZM136.326 458.862L137.659 527.587L94.2283 520.787L131.526 465.701C133.164 463.269 134.764 461.028 136.326 458.862ZM325.555 472.045C334.699 480.593 343.689 489.179 352.604 497.803L353.214 549.014L326.469 547.19L325.555 472.045ZM768.208 472.045C771.408 472.121 774.532 473.527 776.818 476.148C780.208 480.061 780.589 485.456 778.189 489.673L764.246 472.653C765.541 472.235 766.912 472.007 768.246 472.045H768.208ZM547.358 472.881L552.272 558.321V558.397L554.634 588.524C536.385 590.575 528.195 590.803 521.451 592.399C514.708 594.033 510.022 597.186 499.888 604.1C496.345 601.061 492.04 598.667 486.859 596.958L482.554 568.427L512.46 560.525C514.556 559.993 515.927 558.055 515.813 555.89L511.127 474.02L547.396 472.919L547.358 472.881ZM556.425 472.995L598.979 474.78L599.475 512.885L558.634 511.289L556.425 472.995ZM502.022 474.248L506.517 552.699L481.144 559.423L468.42 475.274L501.984 474.248H502.022ZM608.047 475.16L641.839 476.566L640.963 560.525L609.075 557.486L608.047 475.122V475.16ZM459.353 475.54L466.706 524.282L445.524 527.017L437.714 476.186L459.353 475.54ZM428.57 476.49L436.837 530.322L416.265 548.482C412.379 544.531 408.455 540.58 404.531 536.629C405.064 518.621 406.169 498.258 407.464 477.136L428.532 476.49H428.57ZM656.925 478.313L758.988 480.555L772.779 497.385L771.141 519.761L656.468 517.899L656.735 494.117L656.887 478.313H656.925ZM398.207 481.125C397.216 497.385 396.378 513.189 395.807 527.777C386.32 518.279 376.796 508.782 367.081 499.284L398.207 481.163V481.125ZM788.666 484.962L831.487 487.089L829.24 552.661L777.656 555.13L781.808 498.068L782.38 498.752C786.228 494.991 788.361 490.052 788.628 484.962H788.666ZM840.516 487.545L891.529 490.09L889.776 586.016C881.204 587.384 872.67 588.752 864.099 590.119L838.269 553.839L840.516 487.583V487.545ZM-148.032 489.293C-138.356 510.187 -139.46 513.721 -137.365 541.606L-132.451 606.645C-133.898 606.303 -135.384 606.075 -137.022 605.961C-143.27 605.506 -151.385 606.607 -165.786 608.051H-165.862L-168.833 608.393L-175.424 503.881C-166.967 499.36 -158.128 494.649 -148.07 489.293H-148.032ZM-137.898 489.749C-110.621 500.31 -90.5436 505.059 -73.0188 507.87L-88.8292 641.179L-109.592 623.323C-114.85 618.802 -118.355 615.421 -121.479 612.762C-121.974 612.344 -122.507 611.926 -123.002 611.546L-128.336 540.922C-130.279 515.126 -129.822 508.288 -137.898 489.749ZM900.52 490.546L944.941 492.75L942.35 577.545C927.835 579.9 913.32 582.217 898.805 584.535L900.52 490.508V490.546ZM361.709 506.73C373.101 517.899 384.301 529.069 395.388 540.276C395.273 544.303 395.235 548.178 395.197 551.939L362.205 549.698L361.671 506.768L361.709 506.73ZM-184.187 508.592L-177.824 609.457L-219.312 614.167L-203.35 518.887C-197.064 515.506 -194.282 514.024 -184.149 508.592H-184.187ZM-65.5517 509.01C-47.7603 511.441 -32.0261 512.315 -13.0536 516.038C-19.0349 579.862 -24.2543 639.773 -28.2926 693.264L-81.9336 647.143L-65.5517 509.01ZM-1.12921 518.051L21.9958 521.661L5.23303 719.857C-1.43402 712.487 -9.28204 707.282 -16.8634 702.381C-12.7489 647.219 -7.33911 584.763 -1.09113 518.051H-1.12921ZM559.092 520.407L599.513 522.002L599.932 556.726L560.958 553.041L559.092 520.407ZM30.9487 523.104L82.0372 531.12L84.1707 744.627C63.7505 747.856 42.6827 750.363 20.3196 751.997C18.8719 743.449 16.2051 736.307 12.7763 730.266C13.2715 729.583 13.5764 728.823 13.6144 727.987L30.9487 523.104ZM-213.484 524.282L-228.532 614.281C-249.79 590.651 -270.439 566.793 -290.973 542.821L-224.227 529.639C-223.503 529.487 -222.779 529.221 -222.094 528.879C-222.094 528.879 -215.236 525.194 -213.445 524.244L-213.484 524.282ZM656.354 526.979L770.455 528.803L768.512 555.624L656.011 561.019L656.354 526.979ZM91.1425 532.526L137.85 539.858L141.659 733.496C123.982 737.067 109.886 740.334 93.2378 743.145L91.1425 532.526ZM468.001 533.286L477.754 597.869C477.487 598.059 477.22 598.287 476.992 598.515C474.973 600.605 473.03 602.732 471.277 605.05C455.276 588.562 439.085 571.846 422.589 554.978L443.619 536.363L468.001 533.21V533.286ZM146.917 541.302L210.577 551.293C211.301 598.819 212.063 646.421 212.787 693.568C212.787 695.049 212.863 703.483 212.94 715.412C208.939 716.476 204.901 717.54 200.901 718.641C183.909 723.276 167.261 727.569 150.65 731.482L146.917 541.302ZM-307.965 546.24C-306.517 547.95 -305.031 549.622 -303.584 551.331L-387.664 569.681L-394.408 563.298L-307.927 546.24H-307.965ZM1201.15 546.24C1202.59 547.95 1204.08 549.622 1205.53 551.331L1121.45 569.681L1114.7 563.298L1201.18 546.24H1201.15ZM404.264 549.28C416.265 561.437 427.961 573.48 439.656 585.523L423.046 600.491H404.569C404.378 579.71 404.188 562.614 404.188 556.27C404.188 554.028 404.188 551.673 404.226 549.28H404.264ZM225.626 549.432L278.657 553.041L280.448 698.088C262.961 702.381 245.475 706.788 227.988 711.385C227.912 701.774 227.874 695.125 227.836 693.34C227.112 645.624 226.35 597.49 225.626 549.394V549.432ZM287.724 553.687L317.478 555.738L319.117 688.933C309.25 691.25 299.344 693.568 289.477 695.961L287.724 553.725V553.687ZM326.546 556.346L353.29 558.169L354.776 680.803C345.899 682.778 337.022 684.792 328.184 686.843L326.584 556.346H326.546ZM362.357 558.777L395.235 561.019C395.273 576.481 395.768 619.866 396.34 671.761C385.482 674.04 374.663 676.396 363.805 678.789L362.357 558.777ZM-296.879 559.119C-293.221 563.374 -289.526 567.667 -285.868 571.922L-331.28 622.867L-379.702 577.165L-296.879 559.119ZM1212.23 559.119C1215.89 563.374 1219.58 567.667 1223.24 571.922L1177.83 622.867L1129.41 577.165L1212.23 559.119ZM832.325 561.171L854.079 591.753C827.411 595.97 800.705 600.187 774.036 604.442L776.97 564.324L830.23 561.779C830.954 561.779 831.716 561.551 832.325 561.209V561.171ZM561.606 562.196L600.084 565.843L600.922 632.859C589.798 634.796 578.712 636.696 567.587 638.671L561.606 562.158V562.196ZM767.827 564.742L764.817 605.885C728.32 611.698 691.823 617.587 655.325 623.665L655.897 570.136L767.827 564.78V564.742ZM609.151 566.679L640.81 569.681L640.201 626.172C630.105 627.882 620.009 629.592 609.952 631.301L609.151 566.679ZM1095.5 566.907C1083.2 600.947 1069.21 628.908 1054.39 654.437L950.236 615.421L950.96 591.411C999.153 583.585 1047.35 575.493 1095.5 566.907ZM1109.98 571.276L1154.4 613.218L1087.2 650.144L1077.63 643.648C1089.06 622.373 1099.92 598.971 1109.71 571.884C1109.79 571.656 1109.86 571.466 1109.98 571.238V571.276ZM-279.925 578.798C-278.782 580.128 -277.601 581.458 -276.458 582.787C-280.687 586.89 -284.954 589.891 -288.726 595.78C-293.45 603.112 -296.498 614.015 -297.64 635.556V635.632L-298.25 654.02L-324.69 629.06L-279.887 578.76L-279.925 578.798ZM1229.18 578.798C1230.33 580.128 1231.51 581.458 1232.65 582.787C1228.42 586.89 1224.16 589.891 1220.38 595.78C1215.66 603.112 1212.61 614.015 1211.47 635.556V635.632L1210.86 654.02L1184.42 629.06L1229.22 578.76L1229.18 578.798ZM-270.477 589.664C-260.572 601.023 -250.552 612.382 -240.38 623.665L-246.742 642.432C-246.895 642.888 -246.971 643.344 -246.971 643.8L-250.362 869.046L-296.459 869.881L-288.573 636.012C-287.43 615.155 -284.535 606.037 -281.068 600.605C-278.401 596.426 -274.782 593.88 -270.439 589.626L-270.477 589.664ZM1238.63 589.664C1283.4 640.951 1330.07 691.744 1383.4 740.448L1383.78 740.828L1384.24 741.132C1399.52 751.541 1404.09 759.139 1405.77 769.245C1407.44 779.388 1405.31 793.179 1403.82 812.744C1401.35 845.606 1399.71 868.552 1399.29 904.035C1393.08 909.088 1386.49 914.406 1379.4 919.953C1347.21 945.179 1306.94 974.735 1267.63 1002.92C1249.99 1015.58 1232.65 1027.81 1216.16 1039.4L1207.58 1018.92L1220.5 636.012C1221.64 615.155 1224.54 606.037 1228 600.605C1230.67 596.426 1234.29 593.88 1238.63 589.626V589.664ZM445.981 591.981C452.876 599.085 459.848 606.227 466.629 613.256C465.906 615.079 465.334 617.017 464.915 619.182C463.201 628.072 464.267 639.545 468.839 657.021C456.458 659.452 444.038 661.883 431.656 664.429L429.408 606.911L445.943 592.019L445.981 591.981ZM941.855 592.931L941.207 614.433L898.462 617.169C897.891 613.598 897.624 609.077 897.738 605.088C897.776 603.226 897.891 601.555 897.967 599.997C912.596 597.68 927.226 595.324 941.855 592.969V592.931ZM555.282 597.604L558.634 640.267C544.729 642.736 530.823 645.282 516.956 647.865C513.87 633.201 511.699 622.259 507.317 613.75C506.822 612.8 506.327 611.926 505.793 611.052C515.051 604.746 518.556 602.466 523.547 601.251C528.69 600.035 537.109 599.655 555.32 597.604H555.282ZM888.862 601.441C888.824 602.542 888.747 603.644 888.709 604.86C888.557 611.774 888.671 619.828 891.681 626.096C894.805 632.631 898.348 639.735 902.082 647.181L837.964 654.855L832.706 610.368C851.412 607.405 870.118 604.442 888.862 601.441ZM483.164 605.164C491.812 607.747 495.888 611.28 499.241 617.852C502.669 624.539 504.955 634.948 508.041 649.536C497.945 651.436 487.85 653.336 477.754 655.311C473.258 638.139 472.535 627.73 473.83 620.892C475.163 614.053 478.287 610.254 483.164 605.202V605.164ZM420.455 609.457L422.665 666.214C416.874 667.392 411.122 668.608 405.331 669.823C405.064 647.637 404.836 626.704 404.645 609.495H420.455V609.457ZM823.754 611.736L828.973 655.881L778.951 661.846L774.417 619.524C790.875 616.903 807.334 614.319 823.754 611.698V611.736ZM-140.413 615.003C-137.441 614.965 -135.422 615.155 -133.86 615.611C-133.136 615.839 -132.413 616.143 -131.727 616.523L-127.688 670.241C-127.688 670.241 -127.688 670.393 -127.688 670.469C-124.869 692.048 -127.803 703.407 -130.85 709.106C-131.727 710.739 -132.565 711.879 -133.327 712.715C-143.842 702.761 -154.128 692.732 -164.186 682.588L-168.3 617.397L-164.948 617.017H-164.871C-152.871 615.839 -145.366 615.079 -140.451 615.003H-140.413ZM-177.253 618.422L-173.824 672.749C-189.749 656.413 -205.216 639.925 -220.341 623.323L-177.253 618.422ZM1161.37 619.714L1170.44 628.3L1112.99 667.582L1095.65 655.843L1161.37 619.714ZM-347.738 619.714L-338.671 628.262L-396.122 667.544L-413.456 655.805L-347.738 619.676V619.714ZM765.503 620.968L770.036 663.213L712.967 673.281L705.995 630.579C725.843 627.35 745.654 624.159 765.503 621.006V620.968ZM945.284 623.171L1022.43 652.044C995.268 670.127 968.104 686.957 940.941 702.799C927.226 676.662 912.635 648.397 901.739 625.944L945.284 623.171ZM-122.012 624.387C-120.145 626.058 -118.05 627.958 -115.497 630.161L-36.8264 697.823L-118.012 696.911C-117.135 689.768 -117.174 680.765 -118.621 669.482L-122.012 624.387ZM-233.37 631.377C-199.769 668.418 -164.452 705.003 -125.631 740.448L-125.25 740.828L-124.793 741.132C-109.516 751.541 -104.944 759.139 -103.268 769.245C-101.668 778.818 -103.497 791.887 -104.944 809.781L-240.495 818.746L-237.866 644.674L-233.37 631.377ZM697.08 632.061L704.09 674.876L654.792 683.576L655.249 638.937C669.193 636.62 683.136 634.34 697.08 632.061ZM-331.89 634.682L-298.669 666.024L-298.593 665.91L-299.355 683.956L-301.184 686.577L-367.968 770.954L-394.941 753.782C-396.084 753.061 -397.417 752.643 -398.789 752.605C-425.152 751.845 -440.62 751.921 -453.611 749.946C-463.821 748.388 -472.926 745.539 -485.498 739.764L-331.89 634.682ZM1177.22 634.682L1210.44 666.024L1210.52 665.91L1209.76 688.021L1207.93 686.577L1141.14 770.954C1106.24 742.499 1097.29 756.062 1055.5 749.946C1045.29 748.388 1036.18 745.539 1023.61 739.764L1177.22 634.682ZM640.125 641.483L639.629 686.843L611.856 689.313L611.094 646.383C620.771 644.712 630.41 643.078 640.086 641.445L640.125 641.483ZM602.103 647.979L602.827 690.148L571.892 692.922L568.844 653.792C579.931 651.816 591.017 649.878 602.103 647.979ZM1073.37 651.702L1104.99 673.129L1026.93 726.505C1042.47 702.495 1058.32 678.675 1073.33 651.664L1073.37 651.702ZM559.854 655.425L562.978 695.429L552.158 700.254L524.69 661.846C536.386 659.68 548.12 657.552 559.854 655.463V655.425ZM906.425 655.767C914.958 672.597 924.14 690.376 933.093 707.434C914.082 718.375 895.072 728.899 876.061 739.042L868.594 660.326L905.739 655.881C905.968 655.881 906.158 655.805 906.387 655.767H906.425ZM1032.87 656.033L1049.78 662.377C1036.34 684.868 1022.35 705.649 1008.41 727.379C997.363 744.589 987.915 756.67 976.066 768.903C971.609 760.621 960.294 739.612 945.17 710.891C974.39 693.871 1003.65 675.712 1032.91 656.033H1032.87ZM859.641 661.39L863.146 698.392L784.361 711.841L779.98 670.925L859.679 661.39H859.641ZM506.213 665.227C504.536 680.575 505.412 694.403 508.689 709.941L518.442 755.758C516.042 756.1 513.641 756.48 511.127 756.86L501.679 712.867C498.365 697.329 493.907 683.006 485.754 669.102C492.574 667.81 499.355 666.518 506.174 665.227H506.213ZM514.937 668.912L571.854 748.578C557.644 750.325 543.167 752.187 527.395 754.428L517.527 708.042C514.594 694.175 513.718 682.246 514.899 668.912H514.937ZM470.82 671.989L454.857 744.019L437.828 740.98L448.457 676.358C455.924 674.876 463.353 673.395 470.82 671.951V671.989ZM770.951 672.255L775.37 713.437L721.157 723.732L714.376 682.208L770.951 672.255ZM438.971 678.333L428.913 739.46L406.093 735.395C405.902 717.881 405.712 701.736 405.521 685.21C416.684 682.854 427.808 680.575 438.971 678.333ZM481.411 680.043C486.821 690.908 490.135 702.153 492.84 714.766L502.174 758.303C489.945 760.241 476.802 762.52 462.553 765.142L481.411 680.043ZM705.461 683.842L712.281 725.48L654.144 736.535L654.602 692.808L705.461 683.842ZM396.492 687.147C396.873 720.921 397.216 749.528 397.635 785.163L353.557 781.44L352.528 696.759C367.157 693.492 381.825 690.262 396.454 687.185L396.492 687.147ZM639.477 695.961L639.21 720.769L639.02 740.068C629.953 741.322 621.266 742.499 612.771 743.563L611.971 698.43L639.477 695.961ZM343.537 698.734L344.528 780.642L291.458 776.159L290.239 711.233C307.992 706.94 325.746 702.761 343.537 698.734ZM602.942 699.228L603.742 744.703C597.646 745.463 591.551 746.222 585.493 746.944L557.491 707.738L570.026 702.153L602.942 699.228ZM-299.774 699.342L-300.383 717.54L-301.641 754.542L-343.167 754.124L-299.774 699.304V699.342ZM1209.34 699.342L1207.47 754.542L1165.94 754.124L1209.34 699.304V699.342ZM-119.84 705.99L-29.3593 707.016C-29.3974 707.624 -29.4355 708.27 -29.5117 708.84C-30.5784 723.504 -31.1499 738.662 -32.4452 754.2C-51.5319 754.428 -71.6473 754.086 -93.0961 753.099C-97.4391 744.779 -104.678 736.953 -115.535 729.393C-119.307 725.936 -123.041 722.478 -126.774 718.983C-125.441 717.54 -124.107 715.754 -122.85 713.399C-121.745 711.309 -120.717 708.84 -119.878 705.953L-119.84 705.99ZM863.984 707.434L867.413 743.639C852.555 751.503 837.697 759.139 822.801 766.661L788.361 720.351L863.984 707.434ZM-17.6253 712.753C-11.6821 716.742 -6.12 720.845 -1.47211 725.936C4.47107 732.47 9.08087 740.562 11.2905 752.605C1.08044 753.251 -9.43439 753.707 -20.254 753.973C-19.073 739.612 -18.5015 725.783 -17.6253 712.715V712.753ZM281.248 713.437L282.429 775.399L228.978 770.878C228.597 754.884 228.369 739.65 228.217 726.961C245.894 722.288 263.571 717.806 281.286 713.475L281.248 713.437ZM937.322 715.45C953.665 746.45 966.161 769.662 969.399 775.551C962.58 782.161 954.846 789.038 945.627 797.016C924.178 815.593 904.482 833.259 886.195 850.126L870.689 830.941L828.325 773.993C865.737 756.062 902.501 735.471 937.36 715.412L937.322 715.45ZM778.418 722.098L814.648 770.802C788.209 784.061 761.731 796.902 735.253 809.629L722.681 732.698L778.418 722.098ZM213.168 730.988C213.32 742.499 213.549 755.606 213.854 769.625L151.374 764.344L151.031 746.868C168.937 742.727 186.767 738.13 204.939 733.192C207.682 732.432 210.425 731.748 213.168 730.988ZM713.767 734.407L718.91 765.826L653.763 777.792L654.106 745.767L713.805 734.407H713.767ZM406.245 744.627L452.953 752.909L445.409 787.024L406.779 785.694C406.588 769.738 406.474 760.659 406.283 744.589L406.245 744.627ZM141.964 748.92L142.269 763.584L134.573 762.938C134.04 762.9 133.507 762.938 132.973 763.014C128.859 763.774 126.725 763.28 125.354 762.634C123.982 761.989 122.916 760.849 121.735 758.873C120.896 757.505 120.173 755.72 119.296 753.745C126.916 752.225 134.459 750.629 141.964 748.958V748.92ZM638.943 749.224L638.486 793.672L617.876 792.989C617.685 792.229 617.342 791.507 616.847 790.861L591.474 755.378C606.751 753.517 622.257 751.579 638.943 749.262V749.224ZM1010.96 750.515C1025.02 757.354 1035.88 761.419 1046.93 763.736C1050.36 775.247 1053.1 784.213 1055.08 791.469L927.416 901.224L895.681 861.979C914.044 844.998 933.855 827.218 955.494 808.451C980.257 786.986 995.458 772.132 1010.96 750.515ZM106.686 756.1C107.943 758.607 109.391 761.76 111.372 765.028C113.239 768.143 115.944 771.41 120.058 773.424C123.792 775.247 128.44 775.627 133.621 774.943L142.498 775.703L143.45 823.457L75.6368 821.634L79.8276 760.583C88.8947 759.253 97.8476 757.734 106.686 756.138V756.1ZM577.835 757.012L580.197 760.279C578.064 760.735 576.54 762.634 576.616 764.838L577.073 791.545L535.014 790.101L529.299 763.318C546.519 760.849 562.292 758.873 577.835 756.974V757.012ZM70.6461 761.875L67.7126 804.158L-27.2639 801.613C-24.6733 790.595 -22.997 779.73 -21.7779 769.093C11.5192 768.295 41.8445 765.787 70.6461 761.836V761.875ZM-350.253 763.128C-350.253 763.128 -349.872 763.128 -349.719 763.166L-301.984 763.622L-303.088 796.18L-303.622 812.136L-360.387 775.931L-350.253 763.128ZM1158.86 763.128C1158.86 763.128 1159.24 763.128 1159.39 763.166L1207.13 763.622L1205.49 812.136L1148.72 775.931L1158.86 763.128ZM520.309 764.686L525.642 789.836L518.099 789.57L512.994 765.787C515.47 765.408 517.87 765.066 520.27 764.686H520.309ZM1056.87 765.408C1069.1 766.927 1083.04 767.079 1102.63 767.573C1097.83 775.133 1091.77 776.767 1083.73 779.768L1063.39 787.366C1061.67 781.25 1059.42 773.88 1056.87 765.408ZM504.079 767.193L508.803 789.266L457.638 787.518L460.458 774.791C476.306 771.828 490.707 769.359 504.079 767.231V767.193ZM585.683 768.029L603.17 792.495L586.103 791.925L585.683 768.029ZM-88.2578 768.447C-69.2472 769.245 -51.1891 769.511 -33.9691 769.359C-35.2263 779.882 -36.9788 790.557 -39.6075 801.309L-88.9816 799.979C-87.8386 788.278 -86.8862 778.21 -88.2578 768.447ZM1112.07 770.498L1136.99 786.378L1135.08 1013.45L1110.32 1013.33L1110.4 1008.24C1110.4 1008.24 1111.73 909.468 1111.62 860.004C1111.62 847.771 1111.16 823.495 1111.16 823.495C1111.12 820.95 1108.99 818.936 1106.44 819.05C1105.03 819.126 1103.77 819.81 1102.97 820.95L1065.33 874.099C1064.8 874.858 1064.53 875.732 1064.49 876.644L1061.94 1038.75C1061.94 1038.75 1061.94 1038.6 1061.94 1038.52V1038.75C1061.1 1047.3 1061.94 1053.6 1064.19 1059.23C1066.47 1064.92 1069.86 1069.71 1074.01 1076.36C1074.43 1077.04 1075.08 1077.61 1075.81 1077.99L1100.34 1090.38L1100.23 1098.7C1068.8 1086.5 1036.6 1081.22 993.515 1082.06C972.714 1082.44 949.36 1084.26 922.311 1087.38C912.444 1088.52 902.196 1090.42 891.681 1092.85C882.804 1085.86 874.69 1079.51 866.651 1073.21L1048.91 847.733C1060.99 832.803 1067.04 823.609 1067.42 811.566C1067.58 806.893 1066.89 801.954 1065.63 796.256L1088.07 787.86C1100.57 784.897 1103.92 779.92 1112.11 770.574L1112.07 770.498ZM720.281 774.791L726.643 813.77C702.071 825.547 677.498 837.248 652.925 849.101L653.573 787.062L720.281 774.791ZM151.489 776.501L214.044 781.781C214.463 796.522 214.959 811.414 215.682 825.433L152.441 823.723L151.527 776.501H151.489ZM820.02 778.248L863.337 836.526L863.451 836.678L879.452 856.471C828.782 903.693 789.161 944.989 753.274 984.423C740.587 974.241 730.377 965.845 722.262 958.589C710.49 948.028 703.099 941.911 698.261 937.391C693.385 932.908 691.213 930.362 688.546 925.766C683.555 917.18 676.965 899.932 656.43 857.497C710.909 831.245 765.465 805.715 820.058 778.324L820.02 778.248ZM229.169 783.073L282.543 787.594L284.22 877.29H228.902C231.074 862.701 231.95 847.353 231.036 831.055C230.198 815.935 229.588 799.371 229.131 783.073H229.169ZM291.61 788.354L344.604 792.837L345.632 877.29H293.325L291.648 788.354H291.61ZM1145.94 792.115L1169.72 807.273L1168.8 883.672C1161.37 885.306 1155.43 890.928 1153.26 898.109H1145.03L1145.9 792.115H1145.94ZM-363.168 792.115L-339.395 807.273L-340.309 883.672C-347.738 885.306 -353.682 890.928 -355.853 898.109H-364.082L-363.206 792.115H-363.168ZM353.633 793.635L397.711 797.358C398.473 858.674 398.892 894.043 399.235 919.649L354.661 880.937L353.633 793.635ZM406.779 797.89L443.581 799.143L433.104 945.597C433.104 945.786 433.104 945.976 433.104 946.166C425.141 950.839 416.951 955.398 408.798 959.653C408.722 954.752 407.769 878.847 406.779 797.89ZM455.657 799.561L511.318 801.461L530.176 889.371C530.252 889.713 530.328 890.016 530.48 890.32C520.956 893.967 511.279 897.957 501.412 902.211C501.298 902.249 501.146 902.325 501.031 902.401C497.793 895.829 495.812 891.156 494.021 887.661C492.002 883.71 489.64 880.481 485.945 878.923C482.249 877.366 478.44 877.29 472.496 876.948C467.277 876.644 460.115 876.226 450.248 875.124L455.657 799.561ZM1057.29 801.461C1058.01 805.222 1058.39 808.451 1058.32 811.262C1058.05 820.532 1053.67 827.332 1041.82 842.034L960.637 942.481L960.523 942.329L933.017 908.328L1057.33 801.461H1057.29ZM520.651 801.765L528.157 802.031L545.758 884.698C543.51 885.496 541.224 886.293 538.938 887.129L520.651 801.765ZM537.49 802.334L577.188 803.702L578.407 872.883C578.407 873.415 578.521 873.946 578.712 874.44C570.787 876.53 562.673 878.999 554.406 881.734L537.529 802.334H537.49ZM586.217 804.006L638.22 805.792L637.724 851.76C637.724 851.76 637.648 860.536 637.648 865.703C622.104 865.703 605.266 868.02 587.398 872.275L586.217 804.044V804.006ZM-89.934 809.021L-42.0838 810.312C-42.8839 813.01 -43.722 815.745 -44.6363 818.442L-90.5817 817.227C-90.5055 816.125 -90.4292 815.175 -90.353 814.073C-90.2387 812.364 -90.0864 810.692 -89.934 809.059V809.021ZM-29.6641 810.654L66.9888 813.238L66.4173 821.444L-32.1023 818.784C-31.2261 816.049 -30.426 813.352 -29.7021 810.654H-29.6641ZM-330.48 813.01L-307.851 827.446C-306.784 828.13 -305.565 828.51 -304.307 828.624L-306.67 898.374H-315.851C-317.946 891.08 -323.889 885.42 -331.318 883.71L-330.48 813.01ZM1178.63 813.01L1201.26 827.446C1202.33 828.13 1203.55 828.51 1204.8 828.624L1202.44 898.374H1193.26C1191.16 891.08 1185.22 885.42 1177.79 883.71L1178.63 813.01ZM-105.897 819.05C-108.106 848.645 -109.592 871.059 -109.973 904.225C-116.183 909.278 -122.774 914.596 -129.86 920.143C-159.728 943.583 -196.568 970.67 -233.142 996.998L-232.951 923.296C-232.951 920.789 -234.97 918.775 -237.485 918.775H-298.288L-296.955 879.113L-246.019 878.201C-243.58 878.163 -241.599 876.188 -241.561 873.757L-240.876 827.978C-240.876 827.978 -240.571 827.978 -240.418 827.978L-105.897 819.088V819.05ZM-91.3055 826.23L-47.9508 827.408C-52.713 839.565 -58.8847 851.76 -67.0375 863.955C-70.0472 868.476 -77.8572 876.568 -88.753 886.255C-90.6198 887.889 -92.677 889.675 -94.6961 891.422C-94.1628 867.526 -92.9818 848.873 -91.3055 826.23ZM-35.1501 827.75L215.987 834.512C218.045 882.152 203.796 921.473 186.729 957.867C165.813 946.584 154.46 941.114 140.174 938.796C124.935 936.327 107.029 937.353 69.9603 937.542C69.9603 937.542 69.9222 937.542 69.8842 937.542L-26.3115 939.442L-94.9248 917.825C-94.9248 914.33 -94.9248 910.645 -94.9248 907.416C-89.8198 903.161 -84.9813 899.058 -80.7144 895.259C-69.5138 885.306 -61.3992 877.29 -56.9799 870.641C-47.4174 856.319 -40.3694 841.958 -35.1501 827.75ZM-406.98 837.552C-406.865 845.72 -406.713 852.596 -406.713 860.042C-406.713 870.755 -406.713 884.014 -406.827 897.918L-436.086 897.766L-435.781 878.201L-406.98 837.552ZM1102.13 837.552C1102.24 845.72 1102.4 852.596 1102.4 860.042C1102.4 870.755 1102.4 884.014 1102.28 897.918L1073.02 897.766L1073.33 878.201L1102.13 837.552ZM888.824 868.21L920.33 907.188L793.542 1016.18C783.332 1008.24 773.008 1000.15 764.969 993.806C800.286 955.018 839.221 914.482 888.824 868.21ZM637.496 874.744C637.381 890.662 637.191 912.773 636.924 940.962C616.466 941 593.836 945.141 569.53 952.245C569.34 952.245 569.149 952.245 568.959 952.245C568.044 952.283 567.168 952.625 566.444 953.157C561.72 954.562 556.92 956.12 552.082 957.754C551.625 957.829 551.205 957.982 550.786 958.172C534.862 963.604 518.328 970.1 501.298 977.471C500.993 977.585 500.727 977.774 500.46 977.926C500.46 977.926 445.904 1016.9 398.054 1040.34C378.434 1049.96 362.967 1061.51 348.833 1062.72C314.24 1062.91 298.087 1064.39 286.467 1061.51L294.125 996.656C296.639 996.884 299.344 997.036 302.201 997.074C313.44 997.34 327.841 996.618 349.175 996.504C349.29 996.504 349.404 996.504 349.518 996.504C367.691 994.984 383.425 982.371 402.055 973.254C450.705 949.434 504.46 910.987 505.26 910.417C555.587 888.725 601.227 874.782 637.534 874.82L637.496 874.744ZM449.486 884.128C459.391 885.23 466.706 885.647 471.849 885.951C477.792 886.293 480.992 886.673 482.287 887.205C483.583 887.737 484.116 888.345 485.83 891.726C487.431 894.917 489.678 900.122 493.374 907.568C484.116 913.951 466.477 925.879 445.562 938.606L449.448 884.09L449.486 884.128ZM652.506 884.546C665.345 912.051 670.145 924.322 675.326 933.25C676.927 936.023 678.641 938.416 680.546 940.772L652.011 942.367C652.24 919.041 652.392 900.122 652.506 884.584V884.546ZM345.594 886.331L346.813 987.462C326.66 987.614 312.602 988.222 302.354 987.994C299.763 987.918 297.401 987.842 295.23 987.652L293.325 886.331H345.594ZM284.296 886.331L286.162 986.17C283.572 985.487 281.172 984.575 278.772 983.321C266.504 977.015 252.865 960.831 216.902 924.892C221.169 912.621 224.788 899.818 227.302 886.331H284.296ZM-335.89 892.182C-329.299 892.182 -324.08 897.425 -324.08 903.959C-324.08 910.493 -329.337 915.736 -335.89 915.736C-342.443 915.736 -347.7 910.493 -347.7 903.959C-347.7 897.425 -342.443 892.182 -335.89 892.182ZM1173.22 892.182C1179.81 892.182 1185.03 897.425 1185.03 903.959C1185.03 910.493 1179.77 915.736 1173.22 915.736C1166.67 915.736 1161.41 910.493 1161.41 903.959C1161.41 897.425 1166.67 892.182 1173.22 892.182ZM354.738 893.018L399.312 931.73C399.388 936.897 399.731 963.946 399.731 964.212C399.197 964.478 398.626 964.782 398.054 965.048C381.634 973.102 368.11 982.447 355.842 986.018L354.738 893.018ZM-436.238 906.77L-406.865 906.922C-407.208 954.752 -407.932 1008.13 -407.932 1008.13L-408.008 1013.3L-437.915 1013.14L-436.238 906.77ZM1072.87 906.77L1102.24 906.922C1101.9 954.752 1101.18 1008.13 1101.18 1008.13L1101.1 1013.3L1071.2 1013.14L1072.87 906.77ZM-364.235 907.112H-356.539C-355.244 915.47 -348.996 922.194 -340.919 924.17L-341.986 1013.6L-365.111 1013.49L-364.235 907.112ZM1144.88 907.112H1152.57C1153.87 915.47 1160.11 922.194 1168.19 924.17L1167.12 1013.6L1144 1013.49L1144.88 907.112ZM-315.318 907.34H-306.974L-310.022 997.985L-310.555 1013.71L-332.919 1013.6L-331.852 924.36C-323.394 922.688 -316.727 915.85 -315.318 907.302V907.34ZM1193.79 907.34H1202.14L1198.55 1013.75L1176.19 1013.64L1177.26 924.398C1185.72 922.726 1192.38 915.888 1193.79 907.34ZM926.045 914.216L953.36 947.99C953.78 948.56 954.351 949.016 954.999 949.32L934.426 974.735L901.053 935.681L926.007 914.216H926.045ZM-110.049 919.801C-110.049 929.527 -110.049 939.86 -109.859 951.865C-109.783 957.677 -109.745 982.941 -109.745 1012.92L-141.518 1010.79L-153.366 953.309C-142.508 945.141 -132.108 937.163 -122.431 929.565C-118.164 926.221 -114.05 922.954 -110.087 919.763L-110.049 919.801ZM1399.06 919.801C1399.06 929.527 1399.06 939.86 1399.25 951.865C1399.52 970.404 1399.25 1166.28 1399.25 1174.11C1396.51 1174.11 1393.88 1174.11 1390.79 1174.07C1371.33 1173.84 1345.95 1172.97 1318.22 1170.39C1262.75 1165.22 1197.91 1152.95 1153.03 1126.01C1149.26 1123.73 1146.89 1122.25 1144.65 1120.85C1144.11 1120.24 1143.47 1119.74 1142.78 1119.37C1138.86 1117.12 1134.97 1115.03 1131.12 1113.02C1153.14 1098.01 1211.7 1057.86 1274.44 1012.92C1313.88 984.689 1354.22 955.056 1386.64 929.641C1390.91 926.297 1395.02 923.03 1398.98 919.839L1399.06 919.801ZM-94.9629 927.323L-32.7119 946.926L-32.788 986.018L-94.62 984.803C-94.62 968.733 -94.6581 955.778 -94.7343 951.637C-94.8486 942.823 -94.9248 934.807 -94.9248 927.285L-94.9629 927.323ZM-242.018 927.779L-242.209 1003.49C-259.657 1015.99 -276.801 1028.11 -293.107 1039.55L-301.679 1019.07L-298.593 927.817H-242.018V927.779ZM213.473 934.275C246.96 967.973 259.875 983.777 274.619 991.337C278.01 993.085 281.438 994.262 285.134 995.136L277.743 1057.97C266.238 1051.55 253.361 1036.81 221.969 1005.17C219.987 1003.15 212.825 996.466 205.396 989.514C200.977 985.373 196.977 981.612 193.7 978.534C200.672 964.44 207.53 949.776 213.473 934.237V934.275ZM894.234 941.494L928.673 981.839L859.413 1067.51C835.754 1049.01 817.734 1034.95 800.819 1021.81L894.234 941.494ZM113.163 946.166C123.982 946.166 131.868 946.546 138.688 947.648C151.641 949.737 161.813 954.6 182.805 965.959C178.881 974.051 174.88 981.991 170.956 989.893L75.0273 988.032L75.1797 946.432C90.9139 946.318 103.486 946.128 113.163 946.128V946.166ZM66.1506 946.584L65.9982 987.88L-23.7971 986.132L-23.7209 948.37L66.1125 946.584H66.1506ZM682.184 949.624L682.031 1029.78C681.803 1029.78 681.574 1029.75 681.346 1029.75C681.346 1029.75 681.117 1029.75 681.041 1029.75L650.944 1031.46C651.363 1003.38 651.668 976.141 651.935 951.295L682.184 949.624ZM636.886 949.889C636.62 975.381 636.277 1003.46 635.858 1032.33L592.922 1034.8L574.788 960.109C597.494 953.651 618.409 949.965 636.924 949.889H636.886ZM691.251 951.295C696.242 955.74 702.68 961.211 712.09 969.645C720.357 977.053 730.529 985.487 743.063 995.516C725.348 1015.2 708.242 1034.57 691.061 1054.02L691.251 951.257V951.295ZM-161.328 959.273L-150.852 1010.1L-224.075 1005.24C-202.74 989.893 -181.329 974.279 -161.29 959.273H-161.328ZM566.063 962.692L610.028 1143.64C608.923 1144.82 607.742 1146.03 606.637 1147.25C605.418 1146.98 604.199 1146.72 602.98 1146.45L558.33 965.162C560.92 964.326 563.511 963.49 566.063 962.692ZM549.72 968.087L567.587 1040.65L550.253 1051.02L513.832 981.877C526.137 976.749 538.1 972.114 549.72 968.049V968.087ZM505.451 985.449L542.481 1055.69L520.309 1068.95C518.289 1070.17 517.527 1072.71 518.556 1074.8L546.748 1132.43C519.547 1125.67 491.164 1120.2 457.562 1121.72C440.457 1122.48 423.046 1123.32 405.559 1124.11C405.483 1123.47 405.407 1122.75 405.369 1121.83C405.064 1117.01 405.064 1110.02 405.14 1102.99C405.178 1095.96 405.255 1088.9 405.102 1083.58C405.026 1080.92 404.874 1078.72 404.569 1076.85C404.417 1075.94 404.302 1075.14 403.578 1073.89C403.236 1073.24 402.626 1072.33 401.216 1071.72C399.807 1071.08 397.788 1071.38 396.759 1071.99C387.235 1077.5 377.367 1082.74 368.605 1086.58C359.843 1090.42 351.995 1092.7 347.575 1092.73C321.174 1092.89 308.107 1090.99 278.505 1087.87L284.22 1070.17C297.935 1073.78 314.774 1071.84 349.252 1071.65C349.366 1071.65 349.48 1071.65 349.595 1071.65C367.767 1070.13 383.501 1057.52 402.131 1048.4C450.781 1024.58 504.536 986.132 505.336 985.563L505.489 985.487L505.451 985.449ZM189.548 987.044C192.443 989.78 195.796 992.895 199.224 996.124C206.653 1003.08 214.235 1010.18 215.568 1011.55C248.484 1044.71 260.79 1059.91 275.648 1067.05L270.885 1081.83L183.986 998.175C185.814 994.49 187.681 990.805 189.586 987.044H189.548ZM-94.62 993.806L-68.5233 994.3L-68.8661 1136.31C-69.5519 1136.31 -70.2377 1136.31 -70.9235 1136.27L-94.6961 1131.83C-94.6581 1093.23 -94.62 1040.84 -94.6581 993.806H-94.62ZM-59.4561 994.49L11.9382 995.896L11.7096 1081.26L-59.6848 1080.31L-59.4561 994.528V994.49ZM21.0053 996.048L65.9982 996.922L65.7316 1081.94L20.7768 1081.34L21.0053 996.01V996.048ZM75.0654 997.112L166.575 998.897C163.337 1005.51 160.137 1012.08 157.127 1018.65C156.594 1019.18 156.175 1019.79 155.832 1020.44C145.964 1041.07 132.402 1056.41 127.754 1082.78H127.678L74.7606 1082.06L75.0273 997.074L75.0654 997.112ZM754.874 1004.98C762.074 1010.67 770.989 1017.63 779.865 1024.58L714.871 1050.94L714.719 1050.07C727.939 1035.1 741.235 1020.13 754.874 1004.98ZM179.719 1006.61L212.635 1038.29C195.034 1057.36 188.367 1057.29 164.213 1064.92C164.137 1064.09 164.023 1063.25 163.946 1062.46C163.223 1055.39 162.842 1048.66 163.108 1042.55C163.489 1042.02 163.832 1041.41 164.061 1040.8C168.518 1029.63 173.928 1018.27 179.719 1006.65V1006.61ZM-233.142 1013.68L-150.128 1019.18L-152.604 1120.66L-211.083 1106.9C-224.036 1103.87 -228.913 1099.38 -231.237 1094.79C-233.561 1090.19 -233.332 1084.45 -233.332 1078.37L-233.142 1013.64V1013.68ZM-242.209 1018.23L-242.361 1078.37C-242.361 1084.03 -243.009 1091.56 -239.314 1098.85C-235.618 1106.14 -227.618 1112.3 -213.141 1115.68L-151.309 1130.23C-150.966 1130.38 -150.585 1130.53 -150.166 1130.57L-109.706 1138.13C-109.706 1138.97 -109.706 1140.15 -109.706 1140.94C-112.183 1141.36 -113.783 1141.67 -116.45 1142.08C-136.298 1145.39 -162.09 1149.19 -190.206 1151.32C-246.438 1155.53 -311.736 1152.42 -355.929 1125.9C-365.53 1120.12 -366.52 1118.87 -377.988 1113.02C-357.11 1098.77 -302.326 1061.2 -242.133 1018.23H-242.209ZM-141.099 1019.79L-109.668 1021.88C-109.668 1065.46 -109.668 1096.68 -109.706 1128.98L-143.575 1122.63L-141.061 1019.75L-141.099 1019.79ZM-437.991 1022.11L-408.046 1022.26L-408.732 1080.23L-428.2 1070.43C-432.048 1064.28 -434.981 1059.91 -436.619 1055.81C-438.372 1051.44 -439.02 1047.03 -438.296 1039.28C-438.296 1039.17 -438.296 1039.05 -438.296 1038.9L-438.029 1022.11H-437.991ZM1071.12 1022.11L1101.06 1022.26L1100.38 1080.23L1080.91 1070.43C1077.06 1064.28 1074.13 1059.91 1072.49 1055.81C1070.74 1051.44 1070.09 1047.03 1070.81 1039.28C1070.81 1039.17 1070.81 1039.05 1070.81 1038.9L1071.08 1022.11H1071.12ZM-399.017 1022.3L-374.216 1022.41L-374.826 1096.23C-375.092 1096.42 -375.511 1096.68 -375.778 1096.87L-399.741 1084.79L-399.017 1022.34V1022.3ZM1110.09 1022.3L1134.89 1022.41L1134.28 1096.23C1134.02 1096.42 1133.6 1096.68 1133.33 1096.87L1109.37 1084.76L1110.09 1022.3ZM-365.149 1022.45L-342.062 1022.57L-342.671 1072.67H-340.652C-350.786 1079.7 -357.987 1084.68 -365.72 1089.96L-365.149 1022.45ZM1143.96 1022.45L1167.05 1022.57L1166.44 1072.67H1168.46C1158.32 1079.7 1151.12 1084.68 1143.39 1089.96L1143.96 1022.45ZM-332.995 1022.6L-309.908 1022.72L-300.65 1044.83C-312.422 1053.07 -323.28 1060.63 -333.528 1067.74L-332.995 1022.57V1022.6ZM1176.12 1022.6L1199.2 1022.72L1208.46 1044.83C1196.69 1053.07 1185.83 1060.63 1175.58 1067.74L1176.12 1022.57V1022.6ZM784.932 1032.25L783.713 1069.14L722.339 1094.06L716.51 1060.06L784.97 1032.25H784.932ZM793.885 1035.44C815.486 1052.27 840.478 1071.73 873.204 1097.41C847.679 1104.47 821.049 1113.93 794.952 1123.05C793.619 1123.51 792.247 1123.96 790.914 1124.46L793.885 1035.41V1035.44ZM682.07 1038.71V1064.32C671.479 1076.21 660.773 1088.25 649.763 1100.45C650.182 1080.84 650.525 1060.78 650.83 1040.5L681.574 1038.75C681.574 1038.75 681.879 1038.75 682.07 1038.71ZM635.743 1041.37C635.591 1051.93 635.438 1062.49 635.248 1072.94L604.123 1072.75C603.475 1072.75 602.865 1072.86 602.294 1073.09L595.132 1043.69L635.781 1041.37H635.743ZM219.188 1044.52L239.303 1063.9C210.768 1091.18 220.254 1084.68 218.616 1132.4C198.729 1133.16 178.766 1133.88 158.841 1134.49C161.584 1126.62 164.518 1118.49 165.966 1107.47C167.413 1096.42 166.423 1085.02 165.204 1074.04C197.091 1066.14 196.786 1065 219.149 1044.52H219.188ZM569.911 1049.77L593.151 1144.17C584.655 1142.16 576.312 1139.99 567.93 1137.79C564.73 1136.95 561.492 1136.12 558.292 1135.28L528.537 1074.5L569.873 1049.77H569.911ZM151.184 1054.14C151.374 1057.29 151.641 1060.44 151.984 1063.56C153.47 1078.45 155.679 1093.34 154.079 1105.88C152.593 1117.28 149.279 1125.1 146.041 1134.83H145.698C141.659 1117.01 137.393 1101.97 139.107 1088.78C140.936 1074.88 145.545 1064.43 151.184 1054.1V1054.14ZM707.1 1058.69L722.148 1146.19C706.185 1150.29 691.442 1153.06 678.679 1153.56C658.906 1154.35 641.115 1152.95 624.428 1150.37C654.602 1118.23 681.003 1088.29 707.138 1058.69H707.1ZM245.894 1070.17L268.447 1091.86V1130.31C254.847 1130.88 241.322 1131.48 227.721 1132.02C226.274 1116.06 227.34 1107.4 227.15 1095.39C227.036 1086.43 235.988 1079.21 245.856 1070.17H245.894ZM783.447 1078.94L781.847 1127.57C764.284 1133.61 747.064 1139.31 730.987 1143.79L723.977 1103.07L783.485 1078.91L783.447 1078.94ZM604.427 1081.72L635.134 1081.91C634.905 1093.95 634.677 1105.95 634.41 1117.39C628.886 1123.39 623.286 1129.47 617.533 1135.62L604.427 1081.68V1081.72ZM395.997 1082.67C395.997 1083.16 396.073 1083.31 396.073 1083.84C396.226 1088.82 396.149 1095.85 396.111 1102.92C396.073 1109.94 396.035 1117.01 396.378 1122.33C396.416 1123.13 396.492 1123.77 396.568 1124.49C357.557 1126.32 317.669 1128.22 277.438 1129.96V1096.8C307.23 1099.95 320.679 1101.85 347.613 1101.74C354.7 1101.74 362.967 1098.89 372.224 1094.82C379.806 1091.52 387.958 1087.23 395.959 1082.7L395.997 1082.67ZM-59.5705 1089.24L11.8239 1090.19L11.7096 1137.07C-12.3679 1137.07 -36.1787 1136.92 -59.6848 1136.46L-59.5705 1089.24ZM20.8911 1090.3L126.763 1091.71C125.887 1105.95 129.392 1120.09 132.973 1135.17C95.295 1136.19 57.7693 1136.88 20.7768 1137.03L20.8911 1090.3ZM1109.37 1094.75L1124.95 1102.61C1121.67 1104.85 1120.61 1105.57 1119.01 1106.68C1115.77 1105.12 1112.49 1103.64 1109.25 1102.23L1109.33 1094.79L1109.37 1094.75ZM465.753 1136.42C502.25 1135.93 532.385 1143.98 564.197 1152.3C570.94 1154.05 577.759 1155.84 584.693 1157.51C433.828 1164.23 294.011 1171.56 152.936 1174.3L152.593 1159.37C153.051 1155.8 153.622 1152.61 154.346 1149.61C257.742 1146.45 361.595 1140.94 458.362 1136.61C460.839 1136.5 463.315 1136.42 465.753 1136.38V1136.42ZM136.326 1150.14C136.707 1152.11 137.088 1154.13 137.431 1156.14C137.431 1156.25 137.431 1156.41 137.431 1156.52L137.85 1174.57C99.0286 1175.21 60.0551 1175.52 20.6625 1175.36L20.7386 1152.04C58.874 1151.89 97.5428 1151.16 136.326 1150.1V1150.14ZM-77.5143 1151.05C-74.6189 1151.13 -71.6854 1151.2 -68.79 1151.24V1174.11C-72.8284 1174.03 -76.7523 1173.92 -80.7526 1173.84C-83.3051 1173.77 -88.0291 1173.84 -94.5818 1173.88C-94.5818 1173.12 -94.5818 1157.66 -94.5818 1153.56C-92.7532 1153.25 -90.6578 1152.87 -89.0577 1152.61C-82.6574 1151.54 -77.6285 1151.01 -77.5524 1151.01L-77.5143 1151.05ZM-59.7228 1151.47C-36.2168 1151.92 -12.3679 1152.11 11.6715 1152.07L11.5953 1175.33C-12.025 1175.17 -35.7978 1174.87 -59.7991 1174.34V1151.43L-59.7228 1151.47ZM-109.592 1156.18C-109.592 1159.41 -109.592 1173.27 -109.592 1173.96C-112.335 1173.96 -114.964 1173.96 -118.05 1173.92C-137.518 1173.69 -162.89 1172.82 -190.625 1170.23C-198.283 1169.51 -206.131 1168.68 -214.055 1167.65C-205.521 1167.35 -197.14 1166.89 -188.949 1166.28C-160.147 1164.12 -133.898 1160.24 -113.859 1156.9C-112.297 1156.63 -111.078 1156.41 -109.592 1156.18ZM-278.782 1171.41C-249.676 1178.44 -219.655 1182.66 -192.035 1185.2C-187.577 1185.62 -183.234 1185.96 -178.929 1186.3L-181.672 1212.71L-281.563 1203.51L-278.782 1171.41ZM273.629 1186.04C272.752 1187.67 271.952 1189.19 270.885 1191.24C259.456 1213.24 246.96 1238.43 233.436 1261.98C216.902 1290.74 199.948 1316.16 165.661 1336.56C130.383 1357.53 118.687 1356.69 73.9225 1352.85L-291.735 1321.66L-282.287 1212.56L-234.856 1216.92L-241.447 1287.63C-242.056 1293.67 -232.951 1294.5 -232.418 1288.46L-225.827 1217.76L-182.549 1221.75L-189.825 1292.07C-190.473 1298.07 -181.406 1299.02 -180.834 1292.98L-173.519 1222.55L-104.144 1228.93L-110.583 1298.07C-111.192 1304.11 -102.087 1304.95 -101.554 1298.91L-95.1152 1229.77L-79.0001 1231.25L-56.2941 1278.81C-53.7797 1284.43 -45.3602 1280.44 -48.1031 1274.94L-89.0959 1189.04C-85.1719 1189.04 -82.0859 1188.96 -80.943 1189.04C-64.0659 1189.5 -47.2651 1189.8 -30.5784 1190.07L-38.7693 1276.49C-39.4932 1282.61 -30.1974 1283.48 -29.7403 1277.33L-21.4732 1190.18C1.15662 1190.48 23.634 1190.6 45.9971 1190.6L-21.3588 1278.66C-25.2067 1283.48 -17.7777 1289.11 -14.1584 1284.13L57.4263 1190.6C61.998 1190.6 66.5316 1190.6 71.0652 1190.52L60.7408 1310.84C60.2074 1316.84 69.2747 1317.64 69.7699 1311.6L80.1704 1190.48C99.6381 1190.33 119.068 1190.1 138.459 1189.76L139.945 1255.83C139.945 1266.08 155.489 1265.74 155.032 1255.48L153.546 1189.5C193.662 1188.7 233.664 1187.52 273.819 1186.11L273.629 1186.04ZM-169.9 1186.99C-150.394 1188.28 -132.679 1188.81 -118.24 1189C-110.926 1189.08 -104.754 1189.08 -99.2297 1189.08L-83.6479 1221.79L-172.681 1213.62L-169.938 1187.06L-169.9 1186.99Z" fill="#DBE6FF"/>
<path d="M159.868 718L157 598H204.088L206 706.743L159.868 718Z" fill="#B3CDFF"/>
<path d="M156 473.756V520.285L200 527L188.088 468L156 473.756Z" fill="#B3CDFF"/>
<path d="M40.0541 264L33 318.418L87 334V275.986L40.0541 264Z" fill="#B3CDFF"/>
<path d="M186.967 219L133 176.966L138.277 141.657L198 121L193.683 150.5V167.5V183L186.967 219Z" fill="#B3CDFF"/>
<path d="M34.6532 569L75 573.565L68.7928 729L22 725.156L34.6532 569Z" fill="#B3CDFF"/>
<path d="M388 402L323 431.105L360.143 475L388 456.869V402Z" fill="#B3CDFF"/>
<path d="M581.294 150L571 211.283L650 226V161.34L581.294 150Z" fill="#B3CDFF"/>
<path d="M233 570L235.167 698L272 690.822V571.914L233 570Z" fill="#B3CDFF"/>
<rect x="298" y="718" width="37" height="52" fill="#B3CDFF"/>
<rect x="237" y="792" width="40" height="54" fill="#B3CDFF"/>
<rect x="299" y="798" width="40" height="51" fill="#B3CDFF"/>
<rect x="361" y="706" width="27" height="72" fill="#B3CDFF"/>
<rect x="87" y="784" width="47" height="31" fill="#B3CDFF"/>
<rect x="159" y="785" width="47" height="30" fill="#B3CDFF"/>
<rect x="669" y="488" width="87" height="24" fill="#B3CDFF"/>
<rect x="789" y="501" width="32" height="43" fill="#B3CDFF"/>
<rect x="798" y="366" width="40" height="37" fill="#B3CDFF"/>
<rect x="848" y="496" width="30" height="61" fill="#B3CDFF"/>
<rect x="667" y="575" width="79" height="28" fill="#B3CDFF"/>
<rect x="563" y="395" width="38" height="54" fill="#B3CDFF"/>
<path d="M258 251.737C258.321 256.675 258.77 267.84 258 273H323V203H310L258 251.737Z" fill="#B3CDFF"/>
<path d="M889.494 827L854 778.182L932.422 736.782L953.287 778.182L889.494 827Z" fill="#B3CDFF"/>
<path d="M972.473 331.399L963.6 262L1072 297.417V347.671L972.473 331.399Z" fill="#B3CDFF"/>
<path d="M813.5 794.5L752.5 827L807 903L858.5 854.5L813.5 794.5Z" fill="#B3CDFF"/>
<path d="M525.944 557L521 490H538.056L543 557H525.944Z" fill="#B3CDFF"/>
<path d="M367.941 658.716L367.189 576.579L387.4 577.841L388.151 659.978L367.941 658.716Z" fill="#B3CDFF"/>
<path d="M330.598 663.024L329.847 580.888L350.057 582.15L350.808 664.286L330.598 663.024Z" fill="#B3CDFF"/>
<path d="M747 830.5L675.5 865L747 961.5L803 907L747 830.5Z" fill="#B3CDFF"/>
<rect y="841" width="60" height="81" fill="#B3CDFF"/>
<rect x="73" y="841" width="60" height="81" fill="#B3CDFF"/>
<path d="M147 843.5V921.5L181 931C197.4 906.2 202.333 864.833 202.5 846L147 843.5Z" fill="#B3CDFF"/>
<path d="M345.5 100.5L292.5 68.5L323.5 14L376.5 48.5L345.5 100.5Z" fill="#B3CDFF"/>
<path d="M494 229L482.5 281L513 284L531.5 271V235.5L494 229Z" fill="#B3CDFF"/>
<path d="M696.5 241V270.5L734 261L728 225L696.5 241Z" fill="#B3CDFF"/>
<path d="M284 62L242.5 46L259.5 -14L316 9.5L284 62Z" fill="#B3CDFF"/>
</g>
<defs>
<clipPath id="clip0_1572_11452">
<rect width="1000" height="1000" fill="white"/>
</clipPath>
</defs>
</svg>
