<svg width="1000" height="1000" viewBox="0 0 1000 1000" fill="none" xmlns="http://www.w3.org/2000/svg">
<g clip-path="url(#clip0_1572_11499)">
<rect width="1000" height="1000" fill="#E8EAF6"/>
<path d="M94.5 66C94.5 55.7828 102.783 47.5 113 47.5H887C897.217 47.5 905.5 55.7827 905.5 66V998.5H94.5V66Z" fill="url(#paint0_linear_1572_11499)" stroke="#91B6FF" stroke-width="3"/>
<path d="M796 169C800.418 169 804 172.582 804 177L804 482C804 486.418 800.418 490 796 490L578 490C573.582 490 570 486.418 570 482L570 177C570 172.582 573.582 169 578 169L796 169Z" fill="#DBE6FF"/>
<rect x="583" y="933.818" width="178.145" height="10.9091" rx="5.45455" fill="#C5D9FF"/>
<rect x="583" y="902.909" width="207" height="11.4265" rx="5.71324" fill="#C5D9FF"/>
<rect x="583" y="872" width="207" height="11.4265" rx="5.71324" fill="#C5D9FF"/>
<rect x="583" y="842" width="207" height="11.4265" rx="5.71324" fill="#C5D9FF"/>
<rect x="583" y="812" width="207" height="11.4265" rx="5.71324" fill="#C5D9FF"/>
<path d="M172 233C172 228.582 175.582 225 180 225H446C450.418 225 454 228.582 454 233V248C454 252.418 450.418 256 446 256H180C175.582 256 172 252.418 172 248V233Z" fill="#DBE6FF"/>
<rect x="172" y="363.182" width="258.182" height="10.9091" rx="5.45455" fill="#C5D9FF"/>
<rect x="172" y="332.273" width="300" height="11.4265" rx="5.71324" fill="#C5D9FF"/>
<rect x="172" y="301.364" width="300" height="11.4265" rx="5.71324" fill="#C5D9FF"/>
<rect x="172" y="412" width="78" height="23" rx="6" fill="#91B6FF"/>
<path d="M172 597C172 592.582 175.582 589 180 589H291.187C295.606 589 299.188 592.582 299.188 597V650.529C299.188 654.947 295.606 658.529 291.188 658.529H180C175.582 658.529 172 654.947 172 650.529V597Z" fill="#DBE6FF"/>
<rect x="224.57" y="686.543" width="52.3713" height="6.28456" rx="3.14228" fill="#91B6FF"/>
<rect x="224.57" y="698.065" width="32.9939" height="6.28456" rx="3.14228" fill="#91B6FF"/>
<rect x="188.959" y="684" width="27.1333" height="22.8937" rx="8" fill="#91B6FF"/>
<path d="M341 596C341 591.582 344.582 588 349 588H460.187C464.606 588 468.188 591.582 468.188 596V649.529C468.188 653.947 464.606 657.529 460.188 657.529H349C344.582 657.529 341 653.947 341 649.529V596Z" fill="#DBE6FF"/>
<rect x="392.723" y="685.543" width="52.3713" height="6.28456" rx="3.14228" fill="#91B6FF"/>
<rect x="392.723" y="697.065" width="32.9939" height="6.28456" rx="3.14228" fill="#91B6FF"/>
<rect x="357.957" y="683" width="27.1333" height="22.8937" rx="8" fill="#91B6FF"/>
<path d="M510 597C510 592.582 513.582 589 518 589H629.187C633.606 589 637.188 592.582 637.188 597V650.529C637.188 654.947 633.606 658.529 629.188 658.529H518C513.582 658.529 510 654.947 510 650.529V597Z" fill="#DBE6FF"/>
<rect x="561.723" y="686.543" width="52.3713" height="6.28456" rx="3.14228" fill="#91B6FF"/>
<rect x="561.723" y="698.065" width="32.9939" height="6.28456" rx="3.14228" fill="#91B6FF"/>
<rect x="526.957" y="684" width="27.1333" height="22.8937" rx="8" fill="#91B6FF"/>
<path d="M679 595C679 590.582 682.582 587 687 587H798.187C802.606 587 806.188 590.582 806.188 595V648.529C806.188 652.947 802.606 656.529 798.188 656.529H687C682.582 656.529 679 652.947 679 648.529V595Z" fill="#DBE6FF"/>
<rect x="730.723" y="684.543" width="52.3713" height="6.28456" rx="3.14228" fill="#91B6FF"/>
<rect x="730.723" y="696.065" width="32.9939" height="6.28456" rx="3.14228" fill="#91B6FF"/>
<rect x="695.957" y="682" width="27.1333" height="22.8937" rx="8" fill="#91B6FF"/>
<path d="M172 774C172 769.582 175.582 766 180 766H546C550.418 766 554 769.582 554 774V992C554 996.418 550.418 1000 546 1000H180C175.582 1000 172 996.418 172 992V774Z" fill="#DBE6FF"/>
<circle cx="482.359" cy="524.359" r="3.35938" fill="#DBE6FF"/>
<circle cx="500.5" cy="524.359" r="3.35938" fill="#DBE6FF"/>
<circle cx="518.641" cy="524.359" r="3.35938" fill="#DBE6FF"/>
<rect x="745" y="84" width="52.3713" height="6.28456" rx="3.14228" fill="#91B6FF"/>
<rect x="665" y="84" width="52.3713" height="6.28456" rx="3.14228" fill="#91B6FF"/>
<rect x="585" y="84" width="52.3713" height="6.28456" rx="3.14228" fill="#91B6FF"/>
<rect x="505" y="84" width="52.3713" height="6.28456" rx="3.14228" fill="#91B6FF"/>
<rect x="425" y="84" width="52.3713" height="6.28456" rx="3.14228" fill="#91B6FF"/>
<rect x="157" y="78" width="68" height="23" rx="8" fill="#91B6FF"/>
<circle cx="836.5" cy="87.5" r="13.5" fill="#DBE6FF"/>
</g>
<defs>
<linearGradient id="paint0_linear_1572_11499" x1="748.355" y1="45.9999" x2="-62.4363" y2="558.11" gradientUnits="userSpaceOnUse">
<stop stop-color="white"/>
<stop offset="1" stop-color="#F0F4FF"/>
</linearGradient>
<clipPath id="clip0_1572_11499">
<rect width="1000" height="1000" fill="white"/>
</clipPath>
</defs>
</svg>
