<svg width="130" height="130" viewBox="0 0 130 130" fill="none" xmlns="http://www.w3.org/2000/svg">
<path d="M94.6512 99.0917H36.0264C30.8418 99.0917 26.6465 95.0749 26.6465 90.1109V33.9808C26.6465 29.0168 30.8418 25 36.0264 25H94.6512C99.8358 25 104.031 29.0168 104.031 33.9808V90.1109C104.031 95.0749 99.8358 99.0917 94.6512 99.0917Z" fill="white"/>
<path d="M25 80.9804H104.031" stroke="#BAC4E8" stroke-width="2.5" stroke-miterlimit="10" stroke-linecap="round" stroke-linejoin="round"/>
<path d="M51.3451 97.9725L51.3451 27.515" stroke="#BAC4E8" stroke-width="2.5" stroke-miterlimit="10"/>
<path d="M94.4516 99.0917H34.5795C29.2846 99.0917 25 95.1641 25 90.3105V35.4277C25 30.574 29.2846 26.6465 34.5795 26.6465H94.4516C99.7465 26.6465 104.031 30.574 104.031 35.4277V90.3105C104.031 95.1641 99.7465 99.0917 94.4516 99.0917Z" stroke="#BAC4E8" stroke-width="2.5" stroke-miterlimit="10"/>
<path d="M25 44.7578H104.031" stroke="#BAC4E8" stroke-width="2.5" stroke-miterlimit="10"/>
<path d="M25 62.8691H102.385" stroke="#BAC4E8" stroke-width="2.5" stroke-miterlimit="10" stroke-linecap="round" stroke-linejoin="round"/>
<path d="M77.6888 97.9725L77.6888 27.3361" stroke="#BAC4E8" stroke-width="2.5" stroke-miterlimit="10"/>
<path d="M111.26 18.4771L117.314 24.5312" stroke="#E8F0FF" stroke-width="1.72246" stroke-linecap="round"/>
<path d="M117.314 18.4772L111.26 24.5313" stroke="#E8F0FF" stroke-width="1.72246" stroke-linecap="round"/>
<path d="M112.124 17L118 22.8762" stroke="#C7DAFF" stroke-width="1.72246" stroke-linecap="round"/>
<path d="M118 16.9998L112.124 22.876" stroke="#C7DAFF" stroke-width="1.72246" stroke-linecap="round"/>
<path d="M11 89.8344L14.4702 93.3046" stroke="#E8F0FF" stroke-width="1.14831" stroke-linecap="round"/>
<path d="M14.4701 89.8344L10.9999 93.3046" stroke="#E8F0FF" stroke-width="1.14831" stroke-linecap="round"/>
<path d="M11.4651 88.8748L14.9352 92.345" stroke="#C7DAFF" stroke-width="1.14831" stroke-linecap="round"/>
<path d="M14.9353 88.8748L11.4652 92.345" stroke="#C7DAFF" stroke-width="1.14831" stroke-linecap="round"/>
<path d="M95.589 113.084L100.978 118.473" stroke="#E8F0FF" stroke-width="1.72246" stroke-linecap="round"/>
<path d="M100.978 113.084L95.5888 118.473" stroke="#E8F0FF" stroke-width="1.72246" stroke-linecap="round"/>
<path d="M96.0583 111.964L101.447 117.353" stroke="#C7DAFF" stroke-width="1.72246" stroke-linecap="round"/>
<path d="M101.447 111.964L96.0583 117.353" stroke="#C7DAFF" stroke-width="1.72246" stroke-linecap="round"/>
<path fill-rule="evenodd" clip-rule="evenodd" d="M93.8166 94.3495C90.0653 97.3658 85.2988 99.1707 80.1107 99.1707C68.0216 99.1707 58.2214 89.3706 58.2214 77.2815C58.2214 65.1924 68.0216 55.3923 80.1107 55.3923C92.1997 55.3923 102 65.1924 102 77.2815C102 83.139 99.6991 88.4592 95.9519 92.3876C99.4832 95.4066 106.444 101.244 109.525 103.827L109.527 103.829L109.529 103.831L110.149 104.351C113.868 107.47 114.923 109.651 112.995 111.552C111.54 112.986 109.299 113.768 105.507 108.927C102.535 105.132 96.6257 97.724 93.8166 94.3495Z" fill="#E8F0FF"/>
<g style="mix-blend-mode:multiply" opacity="0.8">
<path fill-rule="evenodd" clip-rule="evenodd" d="M80.0069 93.5275C89.6699 93.5275 97.5033 85.6941 97.5033 76.0311C97.5033 66.3681 89.6699 58.5347 80.0069 58.5347C70.344 58.5347 62.5106 66.3681 62.5106 76.0311C62.5106 85.6941 70.344 93.5275 80.0069 93.5275ZM80.0069 98.9632C92.672 98.9632 102.939 88.6961 102.939 76.0311C102.939 63.3661 92.672 53.0991 80.0069 53.0991C67.3419 53.0991 57.0749 63.3661 57.0749 76.0311C57.0749 88.6961 67.3419 98.9632 80.0069 98.9632Z" fill="#E8F0FF"/>
</g>
<path d="M103.26 74.9883C103.26 86.8012 93.6837 96.3775 81.8708 96.3775C70.0578 96.3775 60.4816 86.8012 60.4816 74.9883C60.4816 63.1753 70.0578 53.5991 81.8708 53.5991C93.6837 53.5991 103.26 63.1753 103.26 74.9883Z" stroke="black"/>
<path fill-rule="evenodd" clip-rule="evenodd" d="M81.8708 91.689C91.0943 91.689 98.5715 84.2118 98.5715 74.9883C98.5715 65.7647 91.0943 58.2875 81.8708 58.2875C72.6472 58.2875 65.17 65.7647 65.17 74.9883C65.17 84.2118 72.6472 91.689 81.8708 91.689ZM81.8708 96.8775C93.9599 96.8775 103.76 87.0774 103.76 74.9883C103.76 62.8992 93.9599 53.0991 81.8708 53.0991C69.7817 53.0991 59.9816 62.8992 59.9816 74.9883C59.9816 87.0774 69.7817 96.8775 81.8708 96.8775Z" fill="#B1C6F0"/>
<path d="M107.267 106.634C104.234 102.76 98.1396 95.1222 95.4061 91.8519L97.432 89.8548C101.113 93.0085 109.2 99.7857 111.909 102.058C115.628 105.177 116.683 107.358 114.755 109.259C113.3 110.693 111.059 111.475 107.267 106.634Z" fill="#B1C6F0"/>
<path d="M76.8417 69.7268L88.153 81.1753" stroke="#9AA8DB" stroke-width="2" stroke-linecap="round"/>
<path d="M88.2217 69.7955L76.7732 81.1068" stroke="#9AA8DB" stroke-width="2" stroke-linecap="round"/>
</svg>
